<svg xmlns="http://www.w3.org/2000/svg" height="1024" preserveAspectRatio="none" style="display: block;" version="1.1" viewBox="0 0 2048 2048" width="1024">
<path d="M 0 0 L 2048 0 L 2048 2048 L 0 2048 L 0 0 z" fill="rgb(13,14,16)" transform="translate(0,0)"></path>
<path d="M 1152.51 1271.25 C 1195.84 1269.95 1217.28 1244.77 1249.55 1221.34 C 1276.77 1201.59 1303.51 1189.04 1337.69 1195.36 C 1364.62 1200.34 1390.58 1214.46 1406.47 1237.17 C 1420.45 1257.01 1425.76 1281.68 1421.18 1305.51 C 1419.04 1317.36 1414.55 1328.66 1407.99 1338.75 C 1385.51 1373.46 1315.94 1430.89 1281.65 1454.67 C 1180.08 1525.94 1056.5 1560.97 933.464 1535.36 C 850.367 1518.07 777.037 1482.44 704.669 1438.84 C 680.991 1424.58 667.243 1406.22 674.579 1377.19 C 697.935 1285.11 745.208 1196.93 827.401 1144.63 C 885.664 1107.55 960.97 1087.49 1030.25 1089.33 C 1048 1089.8 1057.13 1088.92 1074.21 1084.04 C 1093.62 1078.49 1117.07 1076.81 1136.79 1081.27 C 1161.39 1086.83 1182.75 1102.01 1196.1 1123.41 C 1213.56 1151.56 1213.22 1188.34 1198.6 1217.57 C 1187.38 1240.02 1169.4 1255.32 1148.4 1268.21 L 1145.46 1270.63 L 1145.88 1271.54 C 1148.54 1271.55 1149.85 1271.59 1152.51 1271.25 z" fill="rgb(249,168,212)" transform="translate(0,0)"></path>
<path d="M 1110.22 1165.96 C 1116.03 1166.52 1117.53 1167.21 1120.88 1172.06 C 1123.49 1191.63 1043.15 1220.2 1026.67 1227.93 C 1003.96 1238.2 969.525 1240.69 961.241 1269.03 C 944.999 1324.61 996.958 1335.64 1035.5 1345.08 C 1102.23 1361.41 1181.53 1370.3 1243.59 1336.31 C 1251.51 1331.94 1259.07 1326.95 1266.19 1321.37 C 1277.53 1312.54 1317.32 1273.41 1330.9 1282.51 C 1337.86 1294.5 1315.42 1310.53 1307.65 1318.31 C 1271.03 1354.96 1231.24 1383.37 1186.49 1409.18 C 1158.38 1423.76 1138.53 1432.98 1108.25 1442.35 C 1011.98 1472.13 917.329 1449.15 829.084 1406.72 C 806.477 1395.85 788.932 1384.58 767.22 1372.9 C 772.767 1353.1 780.216 1333.89 789.463 1315.52 C 830.307 1232.76 913.224 1184.11 1003.67 1178.75 C 1043.94 1176.37 1070.05 1179.56 1110.22 1165.96 z" fill="rgb(13,14,16)" transform="translate(0,0)"></path>
<path d="M 1008.7 509.416 C 1013.74 508.57 1022.29 508.744 1027.49 508.657 C 1080.44 507.769 1130.11 530.655 1169.58 564.896 C 1180.65 574.494 1190.74 582.547 1194.62 597.621 C 1197.68 609.107 1195.9 621.344 1189.71 631.486 C 1174.98 655.238 1144.21 660.655 1123 642.143 C 1114.61 634.826 1106.69 625.813 1097.46 619.624 C 1042.84 582.966 967.578 592.19 929.64 648.014 C 911.47 674.386 904.625 706.938 910.635 738.394 C 916.93 770.563 934.165 795.581 961.271 813.82 C 987.376 831.369 1019.45 837.66 1050.25 831.271 C 1090.55 823.139 1123.51 794.217 1136.8 755.311 C 1144.53 733.117 1146.45 704.005 1176.62 698.904 C 1187.94 696.99 1203.58 699.865 1212.46 707.071 C 1232.13 723.022 1232.68 745.039 1225.34 767.21 C 1215.52 802.622 1201.2 827.653 1178.03 855.199 C 1240.57 880.526 1297.21 923.761 1339.65 977.303 C 1369.06 1016.19 1408.39 1071.93 1409.53 1121.78 C 1410.04 1143.88 1380.82 1162.94 1359.22 1158.62 C 1325.53 1151.89 1323.42 1121.74 1311.51 1095.53 C 1304.22 1079.39 1295.35 1064 1285.04 1049.6 C 1236.86 986.142 1189.27 947.66 1111.43 925.298 C 1031.46 902.264 945.596 912.21 873.01 952.915 C 793.139 997.45 730.003 1086.44 716.437 1177.3 C 714.83 1188.07 714.611 1199.16 711.501 1209.64 C 704.156 1234.41 676.833 1246.05 653.055 1237.48 C 642.784 1233.73 634.453 1226.01 629.936 1216.06 C 618.119 1190.47 638.506 1124.9 647.756 1097.37 C 677.415 1009.11 736.609 934.287 815.48 884.823 C 834.892 872.649 853.988 863.735 874.944 853.823 C 845.083 824.104 826.75 779.158 822.393 737.694 C 810.125 620.934 892.055 520.916 1008.7 509.416 z" fill="rgb(249,168,212)" transform="translate(0,0)"></path>
<metadata><recraft-signature>{"signed_by": "recraft", "signature_b64": "AO88Q3eQ8THzP+zGDMtH3LbZ3J500V3g+yIKl9lVY3GJNvLH8rUXh6cNkC8HVgodLPhGwT0e5QMJp1pLpdmyCA==", "signing_algo": "Ed25519", "generation_timestamp": 1783906584, "identifier": "620a8be9-ce7a-48e6-8caf-801cbfee75f1"}</recraft-signature></metadata></svg>