<svg xmlns="http://www.w3.org/2000/svg" height="1024" preserveAspectRatio="none" style="display: block;" version="1.1" viewBox="0 0 2048 2048" width="1024">
<path d="M 0 0 L 2048 0 L 2048 2048 L 0 2048 L 0 0 z" fill="rgb(13,14,16)" transform="translate(0,0)"></path>
<path d="M 1122.63 527.411 C 1159.12 525.835 1195.05 563.003 1210.24 592.888 C 1230.76 603.987 1250.32 612.184 1270.56 624.849 C 1559.09 805.368 1550.77 1230.62 1257.49 1402.11 C 1241.18 1411.65 1226.14 1420.18 1208.2 1426.84 C 1207.66 1430.91 1207.04 1434.98 1206.34 1439.03 C 1201.79 1463.98 1189.52 1484.09 1168.43 1498.36 C 1148.69 1511.57 1124.52 1516.43 1101.21 1511.88 C 1073.68 1506.52 1054.82 1490.57 1039.71 1467.97 L 1008.25 1467.76 C 989.351 1494.21 970.525 1510.82 936.545 1513.14 C 912.28 1515.02 888.277 1507.08 869.924 1491.09 C 851.278 1474.75 842.143 1453.88 840.395 1429.48 C 780.533 1401.1 746.16 1380.21 699.558 1333.94 C 613.445 1249.53 565.005 1133.97 565.196 1013.38 C 564.814 872.993 629.502 745.355 737.86 657.209 C 757.174 641.713 777.641 627.713 799.085 615.332 C 806.796 610.915 832.377 598.749 836.878 593.997 C 847.471 582.815 857.225 566.403 869.361 554.185 C 951.924 475.562 1047.52 592.439 968.713 660.817 C 938.263 687.238 890.707 670.557 854.725 665.896 C 777.85 705.49 715.732 768.736 677.528 846.311 C 632.341 938.768 626.083 1045.48 660.156 1142.58 C 688.019 1222.57 744.703 1290.99 815.798 1336.64 C 830.834 1346.29 846.179 1353.69 862.216 1361.47 C 895.012 1320.9 960.303 1323.07 995.329 1359.92 C 1007.13 1372.34 1012.13 1383.34 1016.94 1399.58 L 1029.18 1399.57 C 1034.7 1384.23 1040.86 1370.72 1052.13 1358.79 C 1078.83 1330.5 1121.66 1324.11 1156.57 1340.18 C 1168.2 1345.53 1175.97 1351.46 1185.42 1360.29 C 1186.36 1359.89 1187.29 1359.47 1188.23 1359.05 C 1275.02 1319.77 1350.18 1236.66 1383.77 1147.76 C 1420.89 1051.1 1417.94 943.634 1375.59 849.152 C 1346.44 783.909 1299.07 728.469 1239.17 689.492 C 1228.77 682.578 1206.47 669.101 1195.25 664.876 C 1156.85 670.08 1110.69 688.022 1078.77 659.642 C 1025.94 612.656 1051.3 533.764 1122.63 527.411 z" fill="rgb(74,222,128)" transform="translate(0,0)"></path>
<path d="M 1113.57 1375.91 C 1139.16 1373.58 1161.82 1392.37 1164.28 1417.94 C 1166.73 1443.52 1148.05 1466.27 1122.49 1468.85 C 1096.75 1471.45 1073.8 1452.61 1071.33 1426.86 C 1068.86 1401.1 1087.81 1378.25 1113.57 1375.91 z" fill="rgb(13,14,16)" transform="translate(0,0)"></path>
<path d="M 924.284 1376.19 C 949.702 1373.34 972.666 1391.51 975.735 1416.9 C 978.805 1442.3 960.832 1465.42 935.466 1468.7 C 909.791 1472.03 886.325 1453.79 883.218 1428.09 C 880.111 1402.38 898.554 1379.08 924.284 1376.19 z" fill="rgb(13,14,16)" transform="translate(0,0)"></path>
<metadata><recraft-signature>{"signed_by": "recraft", "signature_b64": "GECtcTVnqofIumB6FL2+ruyC+RqfPug/AlRzHlcx9Skiq/QfAFS4Klbk24R+doN0Tdga6/itMV5/BmjXcctgCA==", "signing_algo": "Ed25519", "generation_timestamp": 1783906496, "identifier": "6aa19568-cde5-4787-b0c8-3f2089a45f93"}</recraft-signature></metadata></svg>