<svg xmlns="http://www.w3.org/2000/svg" height="1024" preserveAspectRatio="none" style="display: block;" version="1.1" viewBox="0 0 2048 2048" width="1024">
<path d="M 0 0 L 2048 0 L 2048 2048 L 0 2048 L 0 0 z" fill="rgb(13,14,16)" transform="translate(0,0)"></path>
<path d="M 907.088 664.69 C 985.297 616.734 1078.79 618.895 1153.36 673.192 C 1182.06 694.087 1199.38 717.615 1217.48 747.429 C 1282.47 856.004 1346.7 965.036 1410.15 1074.52 L 1452.79 1148.17 C 1465.38 1169.51 1480.87 1192.69 1489.14 1215.73 C 1498.22 1240.32 1499.79 1267.05 1493.66 1292.54 C 1475.02 1368.47 1395.66 1415.88 1321.87 1423.57 C 1357.37 1390.64 1381.3 1358.59 1383.32 1307.71 C 1384.34 1285.55 1380.55 1263.42 1372.21 1242.86 C 1365.52 1226.15 1355.02 1209.57 1345.73 1194.05 L 1308.48 1132.15 L 1262.4 1054.35 C 1254.91 1041.74 1245.84 1025.42 1237.8 1013.47 C 1230.79 1003.18 1223.01 993.44 1214.53 984.319 C 1166.7 933.053 1100.28 903.166 1030.19 901.379 C 961.967 899.399 895.76 924.656 846.19 971.575 C 833.896 983.074 822.823 995.811 813.146 1009.59 C 803.403 1023.49 793.908 1040.07 785.174 1054.72 L 739.901 1131.22 L 700.732 1196.37 C 681.641 1228.63 664.307 1257.15 663.527 1296.1 C 662.949 1337.07 678.528 1376.61 706.891 1406.17 C 713.222 1412.64 719.854 1417.87 727.065 1423.28 C 717.514 1422.01 708.326 1420.76 698.878 1418.81 C 618.454 1402.19 539.712 1332.83 552.145 1244.13 C 553.955 1231.31 557.532 1218.8 562.774 1206.95 C 574.174 1181.02 594.963 1151.02 609.07 1125.5 C 611.67 1120.79 629.138 1090.81 631.311 1088.18 C 638.602 1072.91 656.476 1044.05 665.603 1028.67 L 720.661 934.795 L 799.982 799.918 C 813.406 777.14 834.088 739.579 849.524 719.105 C 865.339 697.702 884.83 679.278 907.088 664.69 z" fill="rgb(251,146,60)" transform="translate(0,0)"></path>
<path d="M 944.828 1016.57 C 987.716 995.518 1032.41 990.423 1078.01 1006.02 C 1149.06 1030.33 1171.57 1080.78 1207 1139.32 C 1225.54 1169.34 1243.85 1199.5 1261.93 1229.8 C 1274.24 1250.16 1283.78 1269.04 1286.38 1293.1 C 1291.11 1336.82 1266.74 1375.52 1230.07 1397.86 C 1213.79 1407.75 1195.84 1414.55 1177.1 1417.92 C 1154.34 1422.09 1126.48 1421.14 1102.96 1421.13 L 1013.45 1420.84 L 944.396 1421.06 C 912.079 1421.15 886.879 1422.8 854.899 1413.86 C 790.848 1396.58 742.157 1341.26 763.576 1272.68 C 771.376 1247.7 791.448 1218.71 805.742 1196.15 L 843.617 1136.07 C 857.287 1114.24 877.956 1077.29 893.168 1059.06 C 907.462 1041.67 925.01 1027.24 944.828 1016.57 z" fill="rgb(251,146,60)" transform="translate(0,0)"></path>
<path d="M 944.828 1016.57 C 987.716 995.518 1032.41 990.423 1078.01 1006.02 C 1149.06 1030.33 1171.57 1080.78 1207 1139.32 C 1225.54 1169.34 1243.85 1199.5 1261.93 1229.8 C 1262.57 1232.97 1262.66 1231.83 1262.12 1234.87 C 1258.01 1235.71 1255.53 1230.14 1252.85 1227.4 C 1198.78 1171.97 1143.96 1078.25 1071.23 1047.37 C 1050.62 1037.17 1028.82 1029.55 1006.34 1024.68 C 993.411 1022 979.921 1020.47 966.8 1019.01 C 959.292 1018.18 951.663 1020.55 944.828 1016.57 z" fill="rgb(253,186,116)" transform="translate(0,0)"></path>
<metadata><recraft-signature>{"signed_by": "recraft", "signature_b64": "DkAArxP7Wee/KBYsbgJHCBgTefe9mh1MbruKTKT72y9ZqTfZkf4Lkusc8qeWYzNXjtF76JT8lISp4gz2mOulDA==", "signing_algo": "Ed25519", "generation_timestamp": 1783906554, "identifier": "c80eb13c-a563-4e2f-bce6-208be54e7586"}</recraft-signature></metadata></svg>