<svg xmlns="http://www.w3.org/2000/svg" height="1024" preserveAspectRatio="none" style="display: block;" version="1.1" viewBox="0 0 2048 2048" width="1024">
<path d="M 0 0 L 2048 0 L 2048 2048 L 0 2048 L 0 0 z" fill="rgb(13,14,16)" transform="translate(0,0)"></path>
<path d="M 878.704 695.423 C 889.147 693.815 908.985 694.888 920.289 694.931 L 989.124 694.975 L 1103.9 694.86 C 1171.85 694.707 1215.98 690.559 1274.29 734.987 C 1315.75 766.489 1343.15 813.051 1350.55 864.598 C 1353.43 885.929 1352.93 909.269 1352.96 930.909 L 1353.04 1016.22 L 1353.11 1109.7 C 1353.12 1136.74 1354.38 1165.49 1349.18 1191.91 C 1343.16 1222.73 1330.07 1251.72 1310.97 1276.64 C 1275.6 1322.46 1229.97 1345.75 1173.22 1352.91 C 1115.66 1354.86 1050.07 1353.17 991.993 1353.18 L 924.493 1353.29 C 901.165 1353.33 878.015 1354.33 855.087 1349.54 C 822.89 1343.01 792.863 1328.45 767.794 1307.22 C 729.005 1274.89 701.686 1225.02 697.555 1174.64 C 696.211 1158.26 696.43 1137.93 696.402 1121.24 L 696.563 1033.2 L 696.33 937.488 C 696.272 910.446 695.173 878.524 700.624 852.413 C 707.433 820.615 721.837 790.937 742.605 765.914 C 776.71 725.15 825.732 699.76 878.704 695.423 z" fill="rgb(125,211,252)" transform="translate(0,0)"></path>
<path d="M 947.046 753.499 C 986.779 753.102 1028.72 753.093 1067.75 753.858 C 1135.26 755.18 1202.03 740.682 1253.32 795.699 C 1292.4 837.619 1292.74 870.728 1292.81 923.91 L 1292.85 1082.27 C 1292.83 1109.33 1294.41 1165.3 1288.67 1189.02 C 1282.72 1213.9 1269.94 1236.62 1251.77 1254.64 C 1205.73 1300.32 1162.09 1295.18 1103.5 1294.93 L 962.392 1295.1 C 936.684 1295.12 887.36 1296.82 865.176 1291.63 C 840.061 1285.57 817.009 1272.94 798.388 1255.03 C 771.38 1228.57 756.949 1193.46 756.968 1155.81 C 756.996 1100.06 757.273 1044.29 757.166 988.535 L 756.997 926.78 C 756.932 904.003 755.718 881.003 761.021 858.778 C 766.847 835.309 778.851 813.829 795.786 796.568 C 842.509 749.062 886.329 753.874 947.046 753.499 z" fill="rgb(13,14,16)" transform="translate(0,0)"></path>
<path d="M 919.861 809.44 C 957.876 808.594 987.477 826.279 1023.87 831.075 C 1028.76 831.719 1045.49 825.923 1051.6 824.335 C 1086.27 815.318 1119.79 803.933 1155.74 813.83 C 1184.09 821.35 1208.14 840.106 1222.34 865.764 C 1256.21 926.464 1240.43 1015.44 1222.89 1080.63 C 1209.91 1128.89 1175.34 1209.4 1131.59 1236.78 C 1122.9 1242.23 1108.43 1244 1098.39 1240.46 C 1080.31 1234.08 1072.14 1219.23 1064.33 1203.26 C 1061.01 1196.04 1058 1188.77 1055.53 1181.2 C 1050.69 1166.32 1042.73 1130.36 1033.47 1120.06 C 1031.64 1118.03 1029.04 1116.6 1026.24 1117.03 C 1005.71 1120.16 990.737 1204.36 973.79 1224.58 C 965.692 1234.24 955.808 1241.26 942.881 1242.25 C 929.423 1243.29 917.453 1237.71 907.462 1229.12 C 848.767 1178.65 813.262 1053.94 807.771 978.969 C 804.358 932.371 810.3 882.954 842.211 846.492 C 861.898 823.997 890.291 811.461 919.861 809.44 z" fill="rgb(125,211,252)" transform="translate(0,0)"></path>
<path d="M 920.246 872.225 C 955.84 869.732 990.368 896.685 1025.21 895.871 C 1050.58 895.279 1080.45 879.504 1106.01 875.051 C 1120.88 872.129 1139.76 871.87 1152.51 881.775 C 1186.07 907.861 1181.18 963.384 1176.03 999.88 C 1169.57 1045.66 1156.85 1087.62 1137.8 1129.36 C 1131.63 1142.88 1122.96 1155.73 1114.38 1167.43 C 1110.42 1148.68 1105.06 1130.24 1098.34 1112.29 C 1086.48 1084.74 1070.5 1060.86 1039.31 1053.73 C 1021.88 1049.73 1003.57 1052.9 988.499 1062.53 C 955.588 1083.42 943.216 1129.72 935.218 1165.41 C 892.784 1115.96 822.397 889.507 920.246 872.225 z" fill="rgb(13,14,16)" transform="translate(0,0)"></path>
<metadata><recraft-signature>{"signed_by": "recraft", "signature_b64": "XnQuWDyUt2089uHVWGxHN08VH2qKPwmmk5xxIflh86IEPl0Y6cpjilw+jO7ZLnyuJf53pZS6uuQEg8sKvzL5AA==", "signing_algo": "Ed25519", "generation_timestamp": 1783906481, "identifier": "c339e2f4-c839-4358-9c66-94ceeffee77c"}</recraft-signature></metadata></svg>