<svg xmlns="http://www.w3.org/2000/svg" height="1024" preserveAspectRatio="none" style="display: block;" version="1.1" viewBox="0 0 2048 2048" width="1024">
<path d="M 0 0 L 2048 0 L 2048 2048 L 0 2048 L 0 0 z" fill="rgb(13,14,16)" transform="translate(0,0)"></path>
<path d="M 1289.65 715.428 C 1367.27 708.436 1433.42 796.947 1459.29 860.422 C 1504.5 971.042 1503.44 1095.17 1456.36 1205 C 1430.58 1265.75 1381.19 1329.69 1318.82 1354.53 C 1286.85 1367.49 1251.04 1367.17 1219.31 1353.65 C 1162.93 1329.04 1147.17 1272.82 1130.06 1218.64 C 1124.38 1200.67 1103.79 1193.23 1088.92 1209.85 C 1087.18 1211.8 1088.16 1241.66 1088.17 1247.57 L 1088.12 1348.03 C 1088.08 1371.85 1090.39 1429.44 1082.97 1449.12 C 1077.23 1464.55 1065.56 1477.05 1050.55 1483.84 C 1008.92 1502.55 960.984 1473.25 959.667 1427.46 C 959.101 1407.76 959.391 1388.12 959.393 1368.41 L 959.765 1246.43 C 959.8 1237.95 961.013 1215.62 957.643 1208.6 C 952.343 1197.56 935.563 1200.66 926.369 1205.79 L 925.192 1206.46 C 919.909 1215.82 915.979 1233.36 912.884 1244.16 C 901.292 1284.63 885.633 1317.03 851.015 1342.2 C 795.7 1382.21 724.606 1363.26 676.469 1321.75 C 602.802 1258.24 567.043 1162.59 558.815 1067.61 C 550.145 967.523 574.013 856.674 639.238 778.304 C 665.063 747.485 703.142 718.587 744.238 716.089 C 827.363 709.239 868.703 788.422 879.229 860.273 C 889.397 929.687 898.607 1016.13 974.022 1047.9 C 994.319 1056.45 1018.48 1058.35 1040.74 1056.62 C 1123.65 1050.15 1152.73 967.721 1166.66 897.82 C 1176.27 849.064 1177.27 795.793 1211.58 756.092 C 1232.63 731.46 1257.46 718.149 1289.65 715.428 z" fill="rgb(1,249,237)" transform="translate(0,0)"></path>
<path d="M 512.557 708.176 C 534.693 705.736 556.43 715.391 569.461 733.449 C 582.493 751.508 584.805 775.18 575.515 795.419 C 566.224 815.658 546.766 829.336 524.577 831.226 C 490.854 834.099 461.089 809.322 457.799 775.637 C 454.508 741.952 478.915 711.883 512.557 708.176 z" fill="rgb(1,249,237)" transform="translate(0,0)"></path>
<path d="M 514.787 739.303 C 531.537 736.582 547.314 747.975 550.001 764.73 C 552.688 781.486 541.263 797.24 524.502 799.893 C 507.789 802.538 492.09 791.153 489.411 774.446 C 486.732 757.738 498.085 742.016 514.787 739.303 z" fill="rgb(13,14,16)" transform="translate(0,0)"></path>
<path d="M 1521.45 707.312 C 1555.29 703.162 1586.09 727.216 1590.26 761.052 C 1594.43 794.888 1570.4 825.704 1536.56 829.898 C 1502.7 834.096 1471.85 810.035 1467.67 776.168 C 1463.5 742.301 1487.58 711.466 1521.45 707.312 z" fill="rgb(1,249,237)" transform="translate(0,0)"></path>
<path d="M 1528.12 737.672 C 1545.29 737.192 1559.57 750.772 1559.95 767.944 C 1560.34 785.116 1546.68 799.324 1529.51 799.615 C 1512.47 799.905 1498.39 786.375 1498.01 769.336 C 1497.63 752.297 1511.08 738.149 1528.12 737.672 z" fill="rgb(13,14,16)" transform="translate(0,0)"></path>
<path d="M 721.432 574.328 C 742.752 573.155 761.041 589.366 762.437 610.673 C 763.832 631.979 747.814 650.437 726.523 652.056 C 712.551 653.118 699.085 646.593 691.26 634.969 C 683.435 623.345 682.457 608.414 688.699 595.868 C 694.941 583.323 707.441 575.097 721.432 574.328 z" fill="rgb(1,249,237)" transform="translate(0,0)"></path>
<path d="M 718.931 592.721 C 726.342 591.077 734.066 593.549 739.144 599.193 C 744.223 604.836 745.87 612.776 743.456 619.974 C 741.041 627.172 734.939 632.513 727.485 633.953 C 716.178 636.137 705.213 628.832 702.874 617.556 C 700.534 606.28 707.688 595.216 718.931 592.721 z" fill="rgb(13,14,16)" transform="translate(0,0)"></path>
<path d="M 1323.65 574.34 C 1344.9 572.656 1363.55 588.41 1365.43 609.649 C 1367.32 630.888 1351.74 649.681 1330.52 651.77 C 1309.02 653.887 1289.91 638.054 1288 616.526 C 1286.09 594.999 1302.1 576.046 1323.65 574.34 z" fill="rgb(1,249,237)" transform="translate(0,0)"></path>
<path d="M 1321.16 592.645 C 1332.42 589.697 1343.92 596.474 1346.8 607.748 C 1349.68 619.023 1342.83 630.486 1331.54 633.295 C 1320.35 636.079 1309.01 629.303 1306.15 618.127 C 1303.3 606.951 1310 595.568 1321.16 592.645 z" fill="rgb(13,14,16)" transform="translate(0,0)"></path>
<metadata><recraft-signature>{"signed_by": "recraft", "signature_b64": "VCPu+e9BEUq+NrBSxlglfmylawfbP5sLEYrJoTbd114FUddp/zJ8pxJPOOQCyRAHbD5XYM5EIjj0Bql6YFN5Bg==", "signing_algo": "Ed25519", "generation_timestamp": 1783906535, "identifier": "f8865b40-a0db-4163-bc2f-6fc9ace5e771"}</recraft-signature></metadata></svg>