<svg xmlns="http://www.w3.org/2000/svg" height="1024" preserveAspectRatio="none" style="display: block;" version="1.1" viewBox="0 0 2048 2048" width="1024">
<path d="M 0 0 L 2048 0 L 2048 2048 L 0 2048 L 0 0 z" fill="rgb(13,14,16)" transform="translate(0,0)"></path>
<path d="M 993.041 655.576 C 1001.93 654.682 1015.69 654.802 1024.85 654.862 C 1102.05 655.366 1185.7 675.38 1253.09 713.699 C 1298.24 739.367 1332.44 773.788 1346.66 825.094 C 1354.16 852.145 1350.77 894.5 1351.18 923.324 C 1352.65 1025.03 1354.53 1101.18 1300.37 1192.28 C 1255.53 1267.71 1189.77 1326.06 1111.35 1365.57 C 1088.51 1377.07 1077.73 1382.91 1052.73 1389.5 C 1047.34 1390.46 1041.91 1391.21 1036.46 1391.74 C 976.366 1397.35 892.525 1344 847.415 1306.89 C 765.85 1240.06 708.299 1146.44 699.838 1039.98 C 695.926 990.744 698.852 939.553 698.031 890.047 C 697.697 869.923 697.521 847.983 701.992 828.317 C 707.707 804.176 718.844 781.652 734.56 762.456 C 750.782 743.026 768.036 730.868 789.311 717.787 C 851.943 679.276 920.321 661.905 993.041 655.576 z" fill="rgb(132,204,22)" transform="translate(0,0)"></path>
<path d="M 1000.51 723.416 C 1007.33 722.543 1024.91 722.639 1032.11 722.747 C 1093.84 723.775 1154.34 740.13 1208.18 770.34 C 1293.03 817.483 1275.83 857.97 1277.11 944.229 C 1277.52 971.43 1277.96 1000.39 1276.66 1027.41 C 1276.1 1040.59 1274.57 1053.7 1272.1 1066.66 C 1253.15 1162.05 1176.87 1248.9 1091.74 1292.69 C 1075.37 1301.11 1066.06 1307.89 1048.09 1312.74 C 1009.98 1319.29 998.173 1313.58 965.642 1297.41 C 865.832 1247.79 781.429 1150.12 773.492 1035.54 C 771.121 1001.32 773.49 966.394 772.687 932.09 C 772.414 904.493 771.521 872.007 774.332 844.426 C 792.443 762.794 934.283 728.311 1000.51 723.416 z" fill="rgb(13,14,16)" transform="translate(0,0)"></path>
<path d="M 1113.92 805.163 C 1166.02 801.477 1178.71 869.529 1132.07 884.43 C 1118.09 888.899 1112.42 889.045 1104.59 902.635 C 1088.62 930.37 1122.6 1013.84 1159.49 972.931 C 1165.68 966.063 1179.35 964.092 1188.04 965.29 C 1199.49 966.959 1209.73 973.308 1216.33 982.82 C 1222.91 992.175 1225.37 1003.82 1223.15 1015.03 C 1215.32 1053.54 1167.44 1060.71 1147.38 1025.41 C 1146.66 1025.44 1145.93 1025.49 1145.21 1025.54 C 1131.03 1026.65 1116.67 1031.63 1106.91 1042.49 C 1097.94 1052.48 1087.7 1089.3 1089.36 1102.24 C 1094.26 1140.42 1127.22 1120.17 1147.69 1138.92 C 1156.87 1147.33 1160.16 1157.99 1160.61 1169.59 C 1161 1180.38 1157.01 1190.87 1149.55 1198.69 C 1140.14 1208.49 1131.8 1210.48 1118.95 1210.9 C 1068.35 1204.55 1088.99 1169.33 1073.62 1154.36 C 1058.07 1139.22 1018.58 1145.54 998.956 1146.09 C 956.311 1147.27 916.174 1135.45 884.826 1105.61 C 857.321 1079.42 840.867 1044.41 839.959 1006.32 C 839.043 967.919 852.562 931.202 879.267 903.45 C 910.742 870.743 954.671 853.858 999.926 858.758 C 1018.93 860.815 1039.54 865.748 1058.64 864.898 C 1067.01 864.526 1072.23 861.714 1077.86 855.629 L 1078.79 854.61 C 1080.34 828.206 1086.11 812.573 1113.92 805.163 z" fill="rgb(132,204,22)" transform="translate(0,0)"></path>
<path d="M 952.139 914.167 C 973.831 911.74 993.415 927.274 995.991 948.949 C 998.566 970.624 983.165 990.314 961.509 993.036 C 939.642 995.785 919.72 980.203 917.12 958.319 C 914.52 936.434 930.237 916.618 952.139 914.167 z" fill="rgb(13,14,16)" transform="translate(0,0)"></path>
<metadata><recraft-signature>{"signed_by": "recraft", "signature_b64": "uT7gK3Kblhuc0b1upzs//8THq8Gw6Kb8uWoAvnQ8I2klR/BIY72yW+yTY2VA69q474n3VMBX5eH6hgKS0RGIBQ==", "signing_algo": "Ed25519", "generation_timestamp": 1783906550, "identifier": "a8652fc0-0676-440e-91cb-c7fc2c5ecd2c"}</recraft-signature></metadata></svg>