<svg xmlns="http://www.w3.org/2000/svg" height="1024" preserveAspectRatio="none" style="display: block;" version="1.1" viewBox="0 0 2048 2048" width="1024">
<path d="M 0 0 L 2048 0 L 2048 2048 L 0 2048 L 0 0 z" fill="rgb(13,14,16)" transform="translate(0,0)"></path>
<path d="M 958.577 712.908 L 1045.13 713.137 C 1059.99 713.199 1074.66 713.372 1089.51 713.897 C 1134.4 715.481 1177.72 735.985 1209.4 767.475 C 1238.22 795.661 1256.41 832.941 1260.9 873.002 C 1262.73 890.007 1262.31 908.9 1262.36 926.173 L 1262.77 999.414 L 1263.03 1097.58 C 1263.11 1150.46 1266.76 1187.43 1241.68 1236.35 C 1233.35 1252.93 1222.44 1268.09 1209.35 1281.24 C 1181.14 1309.45 1140.81 1329.09 1101.08 1332.69 C 1079.63 1334.64 1054.28 1333.47 1032.56 1333.42 L 938.104 1333.91 C 974.489 1302.43 1023.1 1291.95 1069.88 1294.75 C 1111.71 1297.27 1151.14 1285.62 1181.42 1255.54 C 1199.45 1237.65 1212.29 1215.21 1218.57 1190.6 C 1225.56 1163.09 1223.27 1110.47 1223.26 1080.18 L 1223.69 938.96 C 1223.93 883.475 1227.77 837.539 1184.23 794.493 C 1138.29 749.071 1098.56 752.841 1040.65 752.909 C 1036.64 752.875 1035.22 752.137 1032.4 753.911 C 1033.56 756.724 1037.62 759.808 1040.04 761.981 C 1075.76 799.527 1081.41 824.087 1091.89 872.765 C 1096.8 895.55 1115.36 921.154 1134.39 933.264 C 1148.6 943.743 1189.92 957.188 1190.93 974.726 C 1191.76 988.987 1158.24 1010.63 1148.33 1022.54 C 1163.4 1039.94 1186.18 1057.67 1153.25 1073.65 L 1149.24 1075.64 L 1149.02 1076.69 C 1152.18 1077.62 1152.42 1077.66 1155.71 1077.9 C 1162.99 1079.71 1165.33 1081.46 1169.65 1088 C 1179.45 1102.85 1155.79 1116.25 1155.35 1128.07 C 1154.49 1151.16 1175 1169.84 1161.32 1194.22 C 1157.57 1200.92 1151.89 1206.34 1145.02 1209.77 C 1127.17 1218.8 1086.58 1213.86 1064.73 1214.69 C 1006.95 1216.89 942.936 1242.09 922.123 1300.5 C 919.205 1308.93 917.255 1317.66 916.311 1326.52 C 882.716 1312.57 871.517 1298.94 886.322 1261.5 C 897.898 1232.23 930.825 1211.1 958.624 1199.87 C 992.156 1187.02 1029.13 1186.25 1064.35 1190.74 C 1073.73 1191.93 1085.46 1196.37 1094.53 1196.4 C 1157.5 1196.57 1139.74 1148.15 1120.44 1115.58 L 1121.25 1114.52 C 1127.29 1106.72 1145.42 1097.42 1145.34 1093.11 C 1140.48 1089.33 1130.7 1089.17 1124.38 1088.86 C 1118.72 1088.96 1093.24 1089.94 1089.95 1087.93 L 1092.08 1086.78 C 1103.82 1082.17 1138.95 1066.09 1145.27 1054.56 C 1151.65 1042.93 1128.57 1040.82 1124.24 1028.88 C 1124.28 1017.03 1147.56 1003.29 1156.23 993.871 C 1178.9 969.235 1137.33 960.75 1122.11 949.748 C 1113.12 943.248 1103.18 937.687 1094.71 928.607 C 1068.93 901.001 1069.72 863.532 1058.02 830.079 C 1039.75 783.588 996.219 744.105 958.577 712.908 z" fill="rgb(236,72,153)" transform="translate(0,0)"></path>
<path d="M 947.611 724.851 C 958.61 731.8 970.918 757.38 975.498 769.307 C 988.342 802.751 992.129 828.292 988.311 863.348 C 980.353 936.423 934.342 983.589 895.698 1042.41 C 883.018 1061.85 871.999 1082.32 862.759 1103.61 C 835.78 1167.03 829.214 1229.45 855.333 1294.26 C 849.335 1289.14 843.497 1283.83 837.829 1278.35 C 768.682 1207.29 772.389 1097.12 843.876 1029.8 C 852.791 1021.4 862.503 1014.36 871.632 1006.33 C 885.855 993.811 899.028 979.735 911.516 965.505 C 958.211 912.81 978.598 846.066 962.168 776.743 C 960.551 768.237 957.815 759.802 955.756 751.477 C 953.963 744.227 947.779 731.716 947.611 724.851 z" fill="rgb(236,72,153)" transform="translate(0,0)"></path>
<path d="M 905.531 735.182 C 918.611 734.114 922.231 735.177 933.667 740.838 C 882.281 759.014 830.606 818.568 825.73 873.534 C 824.082 892.114 824.869 915.267 824.899 934.246 L 824.788 1028.21 C 815.695 1039.83 807.58 1049.33 799.106 1061.6 C 795.22 1067.1 790.602 1075.01 786.952 1080.86 C 787.668 1016.85 786.439 952.762 787.089 888.751 C 787.18 879.813 788.382 869.301 789.967 860.525 C 793.969 839.338 801.854 819.073 813.224 800.752 C 833.815 767.27 867.136 743.6 905.531 735.182 z" fill="rgb(236,72,153)" transform="translate(0,0)"></path>
<path d="M 1024.23 906.457 C 1036.03 903.235 1048.21 910.253 1051.33 922.086 C 1054.46 933.919 1047.34 946.032 1035.48 949.061 C 1023.76 952.056 1011.82 945.038 1008.73 933.341 C 1005.64 921.644 1012.56 909.643 1024.23 906.457 z" fill="rgb(255,255,255)" transform="translate(0,0)"></path>
<metadata><recraft-signature>{"signed_by": "recraft", "signature_b64": "sNquIueV3ckvaKgvNflQtGz0N4LcnenW2DGfLaL5sAt2osIYw+wDLDdwXlPVv0B2feQMmIoGW0GUsW5kHgdBAQ==", "signing_algo": "Ed25519", "generation_timestamp": 1783906471, "identifier": "860a62bf-2503-4617-a151-c432b1f9b40b"}</recraft-signature></metadata></svg>