<svg xmlns="http://www.w3.org/2000/svg" height="1024" preserveAspectRatio="none" style="display: block;" version="1.1" viewBox="0 0 2048 2048" width="1024">
<path d="M 0 0 L 2048 0 L 2048 2048 L 0 2048 L 0 0 z" fill="rgb(13,14,16)" transform="translate(0,0)"></path>
<path d="M 1034.78 947.325 C 1073.2 942.498 1102.82 968.074 1130.96 989.838 C 1144.46 1000.28 1158 1008.68 1170.98 1020.14 C 1192.97 1018.48 1214.49 1014.87 1236.4 1012.63 C 1255.97 1010.64 1274.63 1018.82 1274.67 1040.96 C 1274.61 1048.92 1271.35 1056.53 1265.62 1062.06 C 1258.13 1069.18 1247.03 1069.7 1237.2 1069.99 C 1209.47 1070.8 1181.41 1073.46 1153.69 1072.99 C 1136.41 1062.62 1089.67 1028.63 1074.05 1024.67 C 1062.25 1027.33 1056.76 1029.75 1053.16 1041.63 C 1049.59 1053.45 1032.26 1083.86 1044.49 1094.05 C 1067.12 1112.93 1116.63 1126.61 1136.72 1147.07 C 1148.89 1165.86 1146.2 1179.4 1135.01 1197.37 C 1119.93 1221.19 1104.41 1244.72 1088.47 1267.96 C 1083.37 1275.52 1075.81 1288.83 1069.76 1294.76 C 1065.56 1298.92 1060.25 1301.78 1054.46 1303 C 1046.54 1304.68 1038.27 1303.11 1031.51 1298.64 C 987.64 1269.26 1062.64 1219.03 1058.52 1189.82 C 1056.24 1173.6 993.187 1157 977.672 1145.24 C 925.538 1105.69 955.821 1022.81 984.71 978.329 C 996 961.038 1015.3 950.496 1034.78 947.325 z" fill="rgb(134,239,172)" transform="translate(0,0)"></path>
<path d="M 812.112 1167.04 C 793.611 1124.93 784.565 1104.45 780.737 1056.67 C 774.641 979.718 799.563 903.518 849.956 845.039 C 950.191 728.536 1130.24 717.036 1245.64 817.67 L 1243.79 819.272 C 1180.9 780.267 1105.04 767.968 1033.04 785.103 C 952.608 803.788 889.638 848.548 844.725 918.177 C 805.024 979.725 789.431 1064.22 806.453 1135.96 C 808.821 1145.53 811.506 1155.02 814.501 1164.42 L 812.112 1167.04 z" fill="rgb(134,239,172)" transform="translate(0,0)"></path>
<path d="M 941.874 1124.54 C 945.044 1126.43 951.594 1141.34 956.479 1146.49 C 967.834 1158.45 976.325 1163.91 990.426 1172.14 C 979.697 1181.99 967.697 1196.86 958.021 1208.11 L 909.604 1264.14 C 899.409 1275.92 883.355 1296.97 870.565 1303.67 C 839.325 1314.49 811.365 1284.88 828.428 1257.82 C 838.203 1242.32 856.514 1223.58 869.01 1209.18 L 941.874 1124.54 z" fill="rgb(134,239,172)" transform="translate(0,0)"></path>
<path d="M 1132.28 837.646 C 1163.77 833.565 1192.62 855.719 1196.82 887.193 C 1201.01 918.666 1178.96 947.604 1147.5 951.911 C 1115.89 956.24 1086.77 934.053 1082.55 902.42 C 1078.34 870.786 1100.63 841.748 1132.28 837.646 z" fill="rgb(134,239,172)" transform="translate(0,0)"></path>
<path d="M 814.501 1164.42 C 814.767 1165.63 817.261 1173.26 816.066 1173.77 C 815.898 1173.7 815.731 1173.62 815.564 1173.55 L 816.044 1173.49 L 816.033 1173.02 L 814.9 1172.65 C 813.972 1170.78 812.986 1168.93 812.112 1167.04 L 814.501 1164.42 z" fill="rgb(74,222,128)" transform="translate(0,0)"></path>
<path d="M 1245.64 817.67 C 1248.39 819.436 1252.09 823.636 1254.5 826.107 C 1250.83 823.87 1247.28 821.805 1243.79 819.272 L 1245.64 817.67 z" fill="rgb(88,156,142)" transform="translate(0,0)"></path>
<metadata><recraft-signature>{"signed_by": "recraft", "signature_b64": "0Yb9urscLhapXF03B/s+3l1e1vIrZCinC1PEvEwJjcyTPwq6tTW2nBDNISwjN0q8jX3jB/Dj83JWleNkUVnjCA==", "signing_algo": "Ed25519", "generation_timestamp": 1783906582, "identifier": "f615ebda-50a1-430d-ae3a-431c39511711"}</recraft-signature></metadata></svg>