<svg xmlns="http://www.w3.org/2000/svg" height="1024" preserveAspectRatio="none" style="display: block;" version="1.1" viewBox="0 0 2048 2048" width="1024">
<path d="M 0 0 L 2048 0 L 2048 2048 L 0 2048 L 0 0 z" fill="rgb(13,14,16)" transform="translate(0,0)"></path>
<path d="M 860.071 502.047 C 891.352 501.798 922.636 501.872 953.916 502.268 C 953.684 526.512 955.394 542.591 961.435 566.216 C 981.058 642.951 1044.54 702.399 1126.55 698.168 C 1140.47 697.45 1155.13 693.068 1168.99 690.076 C 1188.46 685.703 1208.35 683.478 1228.3 683.442 C 1282.29 683.649 1348.21 703.206 1394.35 729.991 C 1477.1 778.111 1537.28 857.214 1561.57 949.808 C 1589.2 1054.58 1567.12 1161.03 1513.13 1253.54 C 1446.8 1366.46 1338.41 1448.49 1211.71 1481.66 C 1079.17 1516.36 955.915 1494.31 838.864 1425.88 C 789.333 1397.77 712.462 1327.82 679.916 1281.72 C 648.287 1292.03 616.45 1320.36 600.523 1349.11 C 563.309 1416.29 564.33 1475.29 582.251 1546.36 L 482.538 1546.91 C 446.805 1408.04 515.518 1237.58 657.57 1192.42 C 712.903 1174.82 758.535 1184.32 808.781 1149.67 C 873.823 1104.82 886.67 1035.97 898.496 963.182 C 913.727 888.164 961.384 816.878 1018.29 765.937 C 995.523 758.509 970.4 740.025 953.324 723.584 C 890.783 663.37 862.021 587.6 860.071 502.047 z" fill="rgb(249,115,22)" transform="translate(0,0)"></path>
<path d="M 1213.72 778.425 C 1225.53 777.739 1237.38 778.041 1249.14 779.326 C 1318.59 786.445 1378.42 823.87 1421.99 877.801 C 1466.44 932.82 1484.52 1007.52 1476.99 1077.41 C 1467.43 1166.17 1409.5 1260.16 1340.21 1315.63 C 1259.59 1380.17 1152.26 1414.15 1048.75 1401.49 C 958.948 1389.98 874.816 1351.27 807.653 1290.55 C 797.267 1281.32 785.609 1269.12 775.688 1259.12 C 809.125 1252.64 846.928 1233.34 873.309 1212.34 C 930.038 1167.16 960.637 1100.61 978.537 1031.91 C 982.791 1015.58 985.483 999.166 989.595 982.909 C 1000.52 938.404 1021.69 897.066 1051.42 862.192 C 1092.32 813.919 1150.67 783.803 1213.72 778.425 z" fill="rgb(13,14,16)" transform="translate(0,0)"></path>
<path d="M 1202.13 905.424 C 1300.19 895.819 1387.43 967.594 1396.91 1065.66 C 1406.39 1163.73 1334.5 1250.88 1236.42 1260.23 C 1138.52 1269.56 1051.56 1197.83 1042.1 1099.95 C 1032.64 1002.06 1104.26 915.01 1202.13 905.424 z" fill="rgb(249,115,22)" transform="translate(0,0)"></path>
<path d="M 1207.55 929.383 C 1232.97 925.92 1272.34 935.162 1293.86 948.397 C 1335.62 974.073 1356.79 1007.33 1369.5 1053.03 C 1350.12 1044.26 1335.26 1044.24 1317.31 1056.72 C 1310.36 1034.56 1296.78 1015.05 1278.41 1000.83 C 1257.78 985.114 1230.3 978.871 1204.77 982.511 C 1178.73 986.364 1155.34 1000.58 1139.92 1021.92 C 1084.85 1097.01 1145.93 1199.3 1237.76 1183.57 C 1259.5 1179.1 1281.62 1166.69 1296.19 1149.77 C 1307.48 1171.86 1317.65 1174.18 1340.75 1177.31 L 1339.99 1178.33 C 1317.1 1208.74 1275.85 1232.14 1238.1 1236.46 C 1153.3 1246.17 1078.29 1186.14 1068.05 1101.49 C 1063.21 1059.93 1075.19 1018.17 1101.32 985.508 C 1129.05 950.662 1163.9 934.354 1207.55 929.383 z" fill="rgb(13,14,16)" transform="translate(0,0)"></path>
<path d="M 1209.42 1007.43 C 1250.93 1001.92 1289.14 1030.81 1295.15 1072.24 C 1301.16 1113.67 1272.72 1152.23 1231.37 1158.73 C 1204.17 1163.01 1176.78 1152.33 1159.65 1130.78 C 1142.52 1109.23 1138.3 1080.13 1148.6 1054.61 C 1158.9 1029.08 1182.14 1011.06 1209.42 1007.43 z" fill="rgb(13,14,16)" transform="translate(0,0)"></path>
<path d="M 1348.61 1072.34 C 1380.57 1072.78 1369.77 1108.3 1363.94 1126.36 C 1358.27 1143.9 1358.83 1150.6 1338.59 1153.12 C 1307.91 1148.02 1312.5 1127.17 1321.36 1103.6 C 1326.47 1090.01 1325.57 1075.91 1344.49 1072.96 L 1348.61 1072.34 z" fill="rgb(13,14,16)" transform="translate(0,0)"></path>
<metadata><recraft-signature>{"signed_by": "recraft", "signature_b64": "7QvNVA4ANSbDXElVXchRDm05PUAkR7xc/cP2b3za8Io23ciR3/Y3iTBVC3Tp57ZSkDav3dyNCu6sdQeL4OXNCg==", "signing_algo": "Ed25519", "generation_timestamp": 1783906531, "identifier": "c270870f-f4c5-4963-8c23-c25f001ee512"}</recraft-signature></metadata></svg>