<svg xmlns="http://www.w3.org/2000/svg" height="1024" preserveAspectRatio="none" style="display: block;" version="1.1" viewBox="0 0 2048 2048" width="1024">
<path d="M 0 0 L 2048 0 L 2048 2048 L 0 2048 L 0 0 z" fill="rgb(13,14,16)" transform="translate(0,0)"></path>
<path d="M 1079.7 627.007 C 1100.14 630.367 1118.26 633.553 1137.99 640.39 C 1197.82 661.118 1251.95 701.447 1288.8 752.745 C 1312.91 786.74 1329.83 825.303 1338.51 866.069 C 1347.86 910.214 1344.21 977.167 1344.49 1024.44 C 1344.73 1065.54 1346.63 1130.98 1340.28 1169.44 C 1327.24 1249.13 1282.83 1320.28 1216.98 1367.02 C 1203.25 1376.78 1189.81 1384.81 1174.85 1392.56 C 1168.94 1395.63 1151.53 1401.91 1147.59 1404.25 L 1144 1402.53 C 1192.4 1380.65 1214.79 1344.33 1233.03 1296.04 C 1245.31 1262.94 1254.01 1228.61 1258.99 1193.66 C 1266.53 1137.7 1263.65 1066.17 1263.82 1008.55 L 1264.12 945.109 C 1264.36 899.886 1263.33 873.595 1243.79 830.678 C 1218.04 775.123 1171.08 732.23 1113.42 711.624 C 1103.31 707.92 1090.76 704.019 1080.12 702.115 C 1080.03 677.188 1080.13 651.902 1079.7 627.007 z" fill="rgb(19,251,239)" transform="translate(0,0)"></path>
<path d="M 956.195 1418.64 C 855.209 1405.48 759.864 1326.95 724.627 1231.99 C 715.059 1206.46 708.532 1179.88 705.183 1152.82 C 701.448 1121.21 703.121 1060.66 703.082 1026.58 L 703.004 954.025 C 702.967 895.344 704.916 857.404 730.258 802.707 C 764.479 729.161 826.823 672.456 903.275 645.34 C 905.176 646.317 904.938 646.284 906.047 648.297 C 847.756 676.542 817.679 732.339 800.88 792.547 C 778.056 874.355 785.23 964.103 784.064 1048.18 C 783.179 1112.03 778.49 1177.2 812.73 1234.04 C 848.433 1294.14 892.301 1325.64 958.927 1343.37 C 956.933 1366.45 956.839 1395.21 956.195 1418.64 z" fill="rgb(19,251,239)" transform="translate(0,0)"></path>
<path d="M 993.082 1051.38 C 997.344 1053.96 1010.74 1065.05 1015.37 1068.75 C 1035.62 1085.02 1055.53 1101.72 1075.1 1118.81 C 1075.13 1199.9 1080.91 1281.9 1081.85 1363.06 C 1082.34 1405.29 1086.7 1446.52 1080.62 1488.74 C 1076.62 1516.6 1067.62 1532.79 1045.32 1549.71 C 1022.15 1564.27 998.733 1567.6 972.024 1568.63 C 972.24 1507.31 977.883 1435.62 980.511 1373.7 L 993.082 1051.38 z" fill="rgb(19,251,239)" transform="translate(0,0)"></path>
<path d="M 824.602 757.132 L 827.972 756.146 C 837.159 848.832 928.924 922.525 995.671 979.48 C 1016.85 997.549 1040.93 1013.81 1062.13 1032.01 C 1122.78 1088.27 1213.08 1187.8 1221.76 1272.77 C 1221.9 1274.13 1222.02 1275.5 1222.09 1276.86 C 1221.63 1280.53 1222.02 1282.56 1220.35 1285.76 C 1210.06 1221.88 1137.56 1149.72 1089.12 1107.88 C 1045.33 1070.06 995.313 1040.81 955.737 996.411 C 931.103 968.771 903.513 943.686 882.527 912.308 C 855.137 873.481 816.985 805.497 824.602 757.132 z" fill="rgb(19,251,239)" transform="translate(0,0)"></path>
<path d="M 1047.61 474.114 C 1046.47 488.179 1048 509.558 1048.48 524.07 C 1051.42 613.584 1050.34 704.91 1055.13 794.178 C 1041.3 796.257 1026.32 799.216 1012.47 801.666 C 1014.56 772.098 1007.05 763.019 984.608 745.495 C 985.146 729.071 989.154 701.593 991.142 684.627 C 999.151 616.277 1012.25 537.333 1042.85 474.802 L 1047.61 474.114 z" fill="rgb(19,251,239)" transform="translate(0,0)"></path>
<path d="M 1058.86 805.119 L 1059.96 806.118 C 1061.14 813.123 1060.93 824.355 1061.1 831.761 L 1062.23 872.527 L 1066.48 1017.42 C 1055.24 1008.28 1043.92 999.233 1032.52 990.296 C 1022.04 982.025 1011.27 974.129 1000.24 966.623 C 1000.82 959.464 1001.18 951.529 1001.31 944.36 C 1002.07 903.285 1006.31 861.565 1007.12 820.571 C 1024.41 815.576 1041.66 810.425 1058.86 805.119 z" fill="rgb(19,251,239)" transform="translate(0,0)"></path>
<path d="M 1147.59 1404.25 C 1143.94 1405.58 1112.92 1415.51 1111.58 1413.34 C 1110.69 1414.36 1143.15 1402.7 1144 1402.53 L 1147.59 1404.25 z" fill="rgb(13,148,136)" transform="translate(0,0)"></path>
<path d="M 924.574 638.567 L 924.022 641.065 L 922.217 641.684 C 916.953 643.428 910.97 646.899 906.047 648.297 C 904.938 646.284 905.176 646.317 903.275 645.34 C 910.196 642.462 917.368 640.576 924.574 638.567 z" fill="rgb(20,184,166)" transform="translate(0,0)"></path>
<path d="M 1222.09 1276.86 C 1222.7 1279.87 1224.81 1299.63 1221.94 1299.86 C 1220.74 1299.03 1220.42 1287.8 1220.35 1285.76 C 1222.02 1282.56 1221.63 1280.53 1222.09 1276.86 z" fill="rgb(20,184,166)" transform="translate(0,0)"></path>
<path d="M 824.602 757.132 C 825.217 749.445 826.935 743.394 829.076 736.043 C 828.873 743.148 828.382 749.126 827.972 756.146 L 824.602 757.132 z" fill="rgb(20,184,166)" transform="translate(0,0)"></path>
<path d="M 924.574 638.567 C 927.489 637.339 939.77 634.151 942.522 634.686 L 942.416 634.687 C 941.843 635.116 941.935 634.939 941.866 635.207 C 938.942 636.63 937.054 636.86 933.968 637.833 L 932.131 638.391 C 929.412 639.234 926.73 640.188 924.022 641.065 L 924.574 638.567 z" fill="rgb(13,148,136)" transform="translate(0,0)"></path>
<path d="M 1042.85 474.802 C 1046.04 468.082 1046.89 465.334 1047.61 474.114 L 1042.85 474.802 z" fill="rgb(35,237,233)" transform="translate(0,0)"></path>
<metadata><recraft-signature>{"signed_by": "recraft", "signature_b64": "a7v7juMkkpSsokXp5HFj8jI07EYp/E/2TrwfuXYgvc7B787ahBfSJ3VeHZnFTiBaRNj4jIORdZTBEmhRDn76BQ==", "signing_algo": "Ed25519", "generation_timestamp": 1783906493, "identifier": "d9c01931-dc01-449f-81f3-76941935a317"}</recraft-signature></metadata></svg>