<svg xmlns="http://www.w3.org/2000/svg" height="1024" preserveAspectRatio="none" style="display: block;" version="1.1" viewBox="0 0 2048 2048" width="1024">
<path d="M 0 0 L 2048 0 L 2048 2048 L 0 2048 L 0 0 z" fill="rgb(13,14,16)" transform="translate(0,0)"></path>
<path d="M 869.598 759.385 C 878.273 758.142 891.099 759.3 899.738 760.912 C 986.607 777.122 1018.59 898.486 1003.7 972.163 C 991.822 980.808 982.472 987.957 974.977 1000.58 C 947.211 1044.14 963.223 1081.09 976.222 1126.58 C 992.963 1185.17 967.294 1250.72 916.316 1284.52 C 873.445 1312.95 810.462 1332.08 759.739 1343.12 C 756.55 1343.64 753.35 1344.09 750.141 1344.47 C 713.287 1349.15 676.777 1341.76 647.136 1318.49 C 621.422 1298.04 604.893 1268.21 601.194 1235.57 C 596.149 1192.54 612.233 1122.05 624.435 1080.38 C 655.218 975.247 746.831 773.266 869.598 759.385 z" fill="rgb(139,92,246)" transform="translate(0,0)"></path>
<path d="M 1170.77 759.403 C 1174.85 759.446 1178.94 759.564 1183.02 759.757 C 1225.1 762.126 1261.3 790.736 1288.23 821.041 C 1365.71 908.067 1412.52 1017.69 1436.81 1130.77 C 1442.45 1157 1450.09 1196.15 1448.43 1222.74 C 1443.53 1301.04 1382.41 1351.01 1304.76 1345.62 C 1255.74 1341.26 1162.86 1308.27 1124.85 1277.39 C 1079.04 1242.44 1054.79 1178.86 1073.86 1122.68 C 1092.54 1067.66 1103.2 1015.55 1050.46 973.411 C 1048.7 966.245 1047.91 960.23 1047.42 952.867 C 1041.91 869.356 1073.32 766.08 1170.77 759.403 z" fill="rgb(139,92,246)" transform="translate(0,0)"></path>
<path d="M 1156.07 813.224 C 1162.92 812.726 1166.51 812.449 1172.76 815.847 C 1185.44 822.736 1200.74 834.815 1211.78 844.079 C 1278.66 900.244 1325.79 972.816 1354.27 1055.06 C 1360.27 1072.39 1375.31 1115.51 1366.6 1131.09 C 1362.89 1137.73 1359.1 1139.81 1352.31 1142.19 C 1342.62 1143.86 1330.34 1139.07 1326.95 1130 C 1321.8 1116.21 1319.6 1100.03 1315.29 1085.73 C 1306.66 1056.59 1294.95 1028.46 1280.34 1001.81 C 1258.72 961.975 1231.03 925.755 1198.26 894.453 C 1192.82 889.163 1188.64 885.387 1183.02 880.611 C 1173.04 872.126 1146.65 856.44 1141.25 846.033 C 1138.45 840.656 1138.02 834.358 1140.06 828.648 C 1143.03 820.548 1148.6 816.536 1156.07 813.224 z" fill="rgb(13,14,16)" transform="translate(0,0)"></path>
<path d="M 1006.72 697.421 C 1010.65 696.789 1024.76 696.63 1029.09 696.761 C 1063.84 697.816 1085.59 703.075 1114.34 721.816 C 1077.79 739.967 1055.53 759.821 1033.72 794.28 L 1026.39 807.106 C 1006.71 770.271 976.071 736.026 935.942 721.507 C 956.722 705.27 980.999 699.633 1006.72 697.421 z" fill="rgb(139,92,246)" transform="translate(0,0)"></path>
<metadata><recraft-signature>{"signed_by": "recraft", "signature_b64": "V/eCZebHy7+4gKoRsftasAwLnTmtzkH9wZj2h0MTTjRnqhUnJF5MrQjjzs71QwYXXku7fNdqCxk8RUBO3bcLCg==", "signing_algo": "Ed25519", "generation_timestamp": 1783906607, "identifier": "4166effe-2734-4c10-bffa-6a99554db8f5"}</recraft-signature></metadata></svg>