<svg xmlns="http://www.w3.org/2000/svg" height="1024" preserveAspectRatio="none" style="display: block;" version="1.1" viewBox="0 0 2048 2048" width="1024">
<path d="M 0 0 L 2048 0 L 2048 2048 L 0 2048 L 0 0 z" fill="rgb(13,14,16)" transform="translate(0,0)"></path>
<path d="M 810.179 703.415 C 837.163 701.652 864.101 707.492 887.932 720.272 C 918.817 737.228 942.968 764.906 952.806 799.017 C 957.609 815.51 958.44 832.905 955.229 849.78 C 946.227 894.825 916.794 900.989 880.556 917.161 C 814.036 946.849 761.167 1000.8 726.184 1064.26 C 686.587 1136.83 671.299 1220.18 682.565 1302.07 C 684.39 1315.93 686.319 1330.04 689.718 1343.58 C 695.91 1368.27 723.666 1383.21 747.769 1374.63 C 790.835 1359.31 775.55 1320.92 772.649 1287.69 C 761.343 1158.2 814.533 1035.04 945.11 990.998 C 953.903 1030.51 959.931 1061.47 963.776 1101.76 C 973.204 1223.13 954.658 1352.59 841.651 1421.36 C 807.154 1442.35 763.952 1457.59 723.691 1461.89 C 669.324 1467.53 614.952 1451.26 572.613 1416.69 C 531.136 1382.13 505.151 1332.45 500.412 1278.67 C 497.387 1246.85 503.276 1212.4 505.818 1180.67 C 518.603 1021.07 618.079 721.56 810.179 703.415 z" fill="rgb(147,197,253)" transform="translate(0,0)"></path>
<path d="M 1220.46 703.42 C 1226.96 702.955 1235.08 703.089 1241.49 703.829 C 1393.49 721.395 1485.48 917.336 1518.96 1045.3 C 1530.26 1090.11 1538.41 1135.65 1543.36 1181.59 C 1546.78 1211.5 1551.05 1245.38 1548.8 1275.16 C 1544.94 1326.31 1516.56 1382.26 1476.92 1415.11 C 1433.5 1451.09 1383.21 1466.66 1327.01 1461.68 C 1256.29 1454.85 1191.04 1420.62 1145.24 1366.3 C 1086.09 1295.42 1076.65 1213.35 1084.6 1125.24 C 1088.43 1085.23 1096.28 1031.27 1103.49 991.857 C 1117.47 995.339 1133.08 1002.06 1145.87 1008.6 C 1239.51 1056.46 1281.02 1164.45 1277.82 1264.76 C 1277.45 1277.56 1276.42 1290.33 1274.74 1303.03 C 1271.89 1326.27 1266.08 1348.25 1285.96 1366.43 C 1295.24 1374.82 1307.6 1378.97 1320.06 1377.86 C 1331.71 1377.01 1342.5 1371.43 1349.94 1362.43 C 1369.78 1338.26 1371.68 1246.94 1368.56 1214.25 C 1358.09 1102.37 1296.13 992.325 1199.58 932.864 C 1156.92 906.594 1094.26 903.19 1091.96 839.209 C 1089.22 763.161 1146.67 709.297 1220.46 703.42 z" fill="rgb(147,197,253)" transform="translate(0,0)"></path>
<path d="M 1016.96 586.083 C 1051.9 583.099 1047.36 611.214 1046.79 635.684 C 1046.67 640.425 1046.7 645.444 1046.68 650.221 L 1046.8 753.117 C 1046.9 786.459 1044.32 824.071 1053.01 855.902 C 1070.41 926.626 1140.28 931.401 1192.71 966.325 C 1311.69 1045.59 1359.28 1193.36 1331.54 1330.3 C 1329.17 1341.97 1320.69 1350.28 1308.6 1345 C 1299.72 1341.12 1302.95 1324.38 1304.19 1316.96 C 1315.91 1246.47 1308.45 1171.35 1277.61 1106.44 C 1252.89 1053.75 1211.98 1010.34 1160.84 982.549 C 1108.08 954.425 1056.77 949.545 1024.82 888.584 L 1024.36 887.314 C 1021.84 888.942 1020.61 891.921 1019.16 894.791 C 1012.15 908.661 1006.15 915.357 995.16 925.674 C 966.511 953.437 925.815 962.706 892.114 980.559 C 776.668 1041.72 727.432 1172.23 742.126 1297.32 C 743.713 1310.83 755.873 1338.78 738.845 1345.65 C 715.632 1355.02 713.944 1316.83 712.154 1302.46 C 704.17 1242.54 711.134 1181.58 732.424 1125 C 756.283 1060.93 802.058 1001.55 860.269 964.709 C 881.258 951.425 892.27 949.163 912.098 939.532 C 956.029 918.195 994.304 891.778 999.886 838.959 C 1002.04 818.566 1001.14 795.769 1001.12 775.304 L 1001.01 654.584 C 1001.01 638.957 999.193 612.973 1003.44 598.334 C 1005.18 592.352 1011.57 588.601 1016.96 586.083 z" fill="rgb(147,197,253)" transform="translate(0,0)"></path>
<metadata><recraft-signature>{"signed_by": "recraft", "signature_b64": "G+Jrdv+/L+Wk715/ZZGVvRAgM+nC6aqWmeYg3+cj0Q9cXfdVJsTi1YQ8pFGzJ5MQES9QsdnX2Oxus33YBFqpAg==", "signing_algo": "Ed25519", "generation_timestamp": 1783906542, "identifier": "c4800d46-609e-4cfd-9b04-4c970d5f649b"}</recraft-signature></metadata></svg>