<svg xmlns="http://www.w3.org/2000/svg" height="1024" preserveAspectRatio="none" style="display: block;" version="1.1" viewBox="0 0 2048 2048" width="1024">
<path d="M 0 0 L 2048 0 L 2048 2048 L 0 2048 L 0 0 z" fill="rgb(13,14,16)" transform="translate(0,0)"></path>
<path d="M 1015.52 748.413 C 1018.28 748.175 1021.04 748.049 1023.81 748.036 C 1087.4 747.775 1125.58 779.275 1166.72 822.616 C 1186.34 843.279 1190.16 861.181 1168.31 882.178 C 1145.46 904.151 1124.23 928.007 1101.12 949.377 C 1104.6 952.945 1108.01 957.127 1111.27 960.941 C 1125.26 947.23 1185.01 880.81 1197.15 876.224 C 1203.22 873.935 1209.96 875.482 1215.67 878.023 C 1219.99 879.947 1223.87 882.429 1227.49 885.467 C 1238.16 894.427 1247.72 905.599 1257.46 915.605 C 1269.69 928.18 1283.34 940.716 1293.99 954.649 C 1297.82 959.661 1301.03 965.164 1303.13 971.131 C 1307.03 982.221 1306.85 994.008 1301.59 1004.62 C 1296.39 1015.13 1288.24 1020.08 1277.52 1023.65 C 1301.86 1033.22 1311.71 1050.45 1303.96 1075.85 C 1298.68 1093.14 1276.02 1113.61 1263.62 1126.07 L 1229.13 1160.94 C 1200.57 1189.58 1172.89 1218.74 1144.12 1247.29 C 1126.44 1264.58 1108.05 1279.18 1084.8 1288.33 C 1045.88 1303.64 998.793 1303.93 960.272 1287.45 C 945.844 1281.24 932.413 1272.93 920.413 1262.79 C 909.299 1253.52 896.587 1240.08 886.131 1229.6 C 866.055 1209.53 846.191 1189.25 826.545 1168.76 C 804.236 1145.73 780.941 1123.59 759.558 1099.7 C 734.971 1072.23 731.565 1038.32 771.615 1023.53 C 755.951 1018.78 742.104 1006.46 741.558 989.472 C 740.621 960.346 773.471 932.897 792.104 913.923 L 849.579 855.766 C 903.059 801.698 933.032 754.758 1015.52 748.413 z" fill="rgb(34,211,238)" transform="translate(0,0)"></path>
<path d="M 1008.71 890.429 C 1045.63 886.932 1081.17 895.319 1115.56 907.74 C 1105.14 917.586 1094.76 928.194 1084.74 938.436 C 1073.98 949.439 1068.93 953.554 1053.95 957.6 C 1025.22 945.487 994.32 948.09 969.445 967.599 C 951.282 981.92 939.563 1002.88 936.873 1025.85 C 933.98 1051.99 942.112 1073.04 958.301 1093.28 C 963.045 1093.15 969.071 1093.24 973.333 1090.96 C 981.157 1086.79 976.809 1074.09 979.315 1066.91 C 981.402 1060.93 1045.1 995.154 1052.53 989.31 C 1059.91 983.492 1071.22 980.269 1079.69 975.675 L 1089.44 984.611 C 1053.11 1018.35 1020.65 1058 984.305 1092 C 979.072 1096.89 970.05 1096.06 965.611 1099.52 C 972.408 1111.42 1007.42 1119.44 1021.24 1119.55 C 1067.23 1119.9 1103.65 1086.53 1106.25 1040.4 C 1106.99 1027.22 1106.14 1014.25 1106.07 1001.12 C 1113.07 989.7 1121.44 982.166 1130.88 972.804 C 1141.41 962.437 1155.62 948.902 1164.69 937.752 C 1180.65 954.351 1196.74 970.819 1212.97 987.155 C 1228.01 1002.3 1238.94 1016.48 1259.68 1023.51 C 1242.1 1029.21 1215.86 1058.86 1202.48 1073.35 C 1153.71 1126.21 1108.75 1160.16 1032.73 1163.38 C 1006.1 1164.68 979.458 1160.86 954.264 1152.11 C 893.1 1130.53 869.68 1095.89 824.89 1052.12 C 811.657 1039.19 804.985 1027.99 786.761 1024.38 C 819.348 1013.29 850.273 967.36 877.872 944.537 C 918.111 911.263 956.539 894.08 1008.71 890.429 z" fill="rgb(13,14,16)" transform="translate(0,0)"></path>
<metadata><recraft-signature>{"signed_by": "recraft", "signature_b64": "/khwyeJoPAbZUlb1i4s0QzJYVa8LJ7yI8ynYaY2QXT2r/C/nEq1965F9p2jmrDzbJKZsf7ssBkypUToxX4AVDw==", "signing_algo": "Ed25519", "generation_timestamp": 1783906484, "identifier": "ead43124-5037-45a1-b789-081df7e3575f"}</recraft-signature></metadata></svg>