<svg xmlns="http://www.w3.org/2000/svg" height="1024" preserveAspectRatio="none" style="display: block;" version="1.1" viewBox="0 0 2048 2048" width="1024">
<path d="M 0 0 L 2048 0 L 2048 2048 L 0 2048 L 0 0 z" fill="rgb(13,14,16)" transform="translate(0,0)"></path>
<path d="M 1012.69 602.324 C 1045.1 597.823 1077.58 608.7 1101.73 630.163 C 1114.97 641.931 1123.45 654.18 1133.46 668.506 C 1052.56 683.266 1026.27 730.462 983.22 793.697 L 924.015 879.962 L 868.443 959.23 C 853.44 980.52 834.576 1005.31 824.412 1028.91 C 811.267 1059.44 807.142 1095.71 810.305 1128.66 C 815.292 1184.03 842.354 1235.05 885.39 1270.23 C 976.989 1344.77 1117.61 1332.13 1192.41 1239.71 C 1240.26 1180.1 1252.39 1099.37 1224.17 1028.33 C 1214.54 1004.66 1197.65 983.275 1183.65 962.196 C 1152.33 915.03 1118.92 869.205 1087.51 822.046 C 1081.69 813.3 1059.66 784.84 1059.11 776.247 C 1058.34 764.094 1075.03 738.495 1083.33 729.376 C 1101.46 709.739 1126.52 697.923 1153.21 696.425 C 1160.96 705.946 1170.45 721.053 1177.62 731.55 L 1220.08 793.187 C 1238.81 822.558 1258.04 851.601 1277.77 880.304 C 1318.42 938.91 1348.6 980.445 1360.55 1052.76 C 1375.14 1140.66 1354.04 1230.76 1301.94 1303.05 C 1248.63 1377.18 1168.2 1427.25 1078.15 1442.37 C 983.64 1457.75 900.785 1435.45 822.508 1380.75 C 691.392 1289.12 648.058 1114.54 714.546 970.251 C 723.094 951.7 738.499 929.449 750.226 911.975 C 773.252 877.666 797.21 843.525 820.905 809.565 L 893.566 705.244 C 929.404 653.246 944.431 612.362 1012.69 602.324 z" fill="rgb(220,38,38)" transform="translate(0,0)"></path>
<path d="M 1080.4 967.548 C 1114.2 962.232 1145.9 985.35 1151.17 1019.16 C 1156.44 1052.97 1133.28 1084.64 1099.47 1089.87 C 1065.71 1095.08 1034.12 1071.97 1028.86 1038.23 C 1023.59 1004.48 1046.66 972.855 1080.4 967.548 z" fill="rgb(220,38,38)" transform="translate(0,0)"></path>
<path d="M 1050.2 1131.12 C 1084.04 1125.25 1116.18 1148.06 1121.82 1181.94 C 1127.46 1215.81 1104.43 1247.8 1070.52 1253.21 C 1036.93 1258.56 1005.31 1235.81 999.73 1202.26 C 994.146 1168.7 1016.69 1136.93 1050.2 1131.12 z" fill="rgb(220,38,38)" transform="translate(0,0)"></path>
<path d="M 928.731 1020.61 C 962.292 1015.54 993.625 1038.6 998.752 1072.15 C 1003.88 1105.71 980.866 1137.07 947.321 1142.25 C 913.702 1147.44 882.252 1124.37 877.113 1090.74 C 871.974 1057.12 895.097 1025.7 928.731 1020.61 z" fill="rgb(220,38,38)" transform="translate(0,0)"></path>
<metadata><recraft-signature>{"signed_by": "recraft", "signature_b64": "/aPFWVC6pgTvCI4+3f4UIVnItqg3AOXpCxnk5aHoQE0IILbR/urPY6QYYMXtvKuLVC6MZ40yXN30zeCPA5VuBA==", "signing_algo": "Ed25519", "generation_timestamp": 1783906549, "identifier": "18856dc8-ad85-4b6d-a12b-8103814eee7d"}</recraft-signature></metadata></svg>