<svg xmlns="http://www.w3.org/2000/svg" height="1024" preserveAspectRatio="none" style="display: block;" version="1.1" viewBox="0 0 2048 2048" width="1024">
<path d="M 0 0 L 2048 0 L 2048 2048 L 0 2048 L 0 0 z" fill="rgb(13,14,16)" transform="translate(0,0)"></path>
<path d="M 1006.37 540.965 C 1272.96 531.144 1497.14 739.076 1507.37 1005.65 C 1517.6 1272.23 1310.01 1496.73 1043.45 1507.37 C 776.315 1518.03 551.219 1309.89 540.967 1042.74 C 530.715 775.584 739.198 550.807 1006.37 540.965 z" fill="rgb(45,212,191)" transform="translate(0,0)"></path>
<path d="M 1006.25 591.119 C 1245.91 581.394 1448.01 767.949 1457.45 1007.63 C 1466.9 1247.3 1280.11 1449.18 1040.42 1458.35 C 801.131 1467.5 599.655 1281.09 590.224 1041.8 C 580.794 802.522 766.974 600.828 1006.25 591.119 z" fill="rgb(13,14,16)" transform="translate(0,0)"></path>
<path d="M 1017.86 609.421 C 1037.94 608.075 1058.07 611.204 1076.79 618.582 C 1116.03 633.81 1144.21 661.116 1161.02 699.286 C 1183.71 752.907 1174.13 819.538 1132.14 861.066 C 1119.7 873.367 1105.3 880.858 1092.33 891.943 C 1079 903.33 1067.84 918.743 1061.11 934.757 C 1045.22 972.539 1080.35 993.869 1101.19 1018.62 C 1109.79 1028.83 1116.3 1043.52 1121.81 1055.89 C 1194.36 1047.77 1257.26 1119.19 1243.31 1189.63 C 1240.1 1205.85 1236.6 1214.76 1229.04 1229.48 C 1241.28 1248.22 1245.27 1268.2 1245.09 1290.48 C 1244.6 1319.51 1232.63 1347.17 1211.81 1367.4 C 1183.75 1394.52 1154.38 1400.79 1117.02 1399.96 L 1115.57 1401.82 C 1093.01 1430.6 1067.56 1443.58 1031.35 1447.95 C 989.125 1449.36 956.256 1433.85 931.548 1399.05 C 907.566 1402.63 883.073 1398.2 861.863 1386.45 C 805.322 1354.8 787.407 1283.85 819.484 1228.06 C 808.335 1209.5 802.744 1188.13 803.377 1166.49 C 804.288 1136.37 817.074 1107.82 838.945 1087.08 C 865.506 1062.04 892.353 1054.05 928.019 1055.22 C 938.628 1025.95 955.068 1009.53 975.879 987.83 C 985.267 978.039 992.163 961.724 990.963 947.875 C 989.132 926.745 969.517 902.05 953.526 889.253 C 944.371 882.45 934.288 876.874 925.402 869.707 C 864.161 820.308 857.983 723.341 908.336 664.016 C 937.837 629.26 972.542 613.376 1017.86 609.421 z" fill="rgb(45,212,191)" transform="translate(0,0)"></path>
<path d="M 828.161 1227.95 C 845.537 1204.58 863.731 1190.91 892.666 1183.88 C 910.521 1179.54 933.384 1179.7 950.261 1187.71 C 955.261 1190.08 966.768 1197.92 972.114 1201.25 L 1009.1 1224.18 L 1013.8 1226.88 L 1014.25 1228.54 C 1012.71 1229.74 1012.2 1230.17 1010.53 1231.18 C 1002.07 1235.61 974.025 1251.55 968.114 1256.61 C 921.699 1296.38 860.323 1273.42 828.161 1227.95 z" fill="rgb(13,14,16)" transform="translate(0,0)"></path>
<path d="M 1123.49 1181.35 C 1131.75 1180.65 1140.07 1181.06 1148.22 1182.56 C 1179.38 1188.16 1201.4 1203.07 1219.26 1228.67 C 1197.68 1260.19 1170.14 1275.28 1132.15 1276.93 C 1114.06 1275.63 1106.16 1274.06 1090.66 1263.54 C 1072.46 1251.19 1051.65 1240.54 1034.02 1227.35 C 1063.31 1211.46 1092.54 1185.5 1123.49 1181.35 z" fill="rgb(13,14,16)" transform="translate(0,0)"></path>
<path d="M 908.688 1063.36 C 912.962 1062.88 920.307 1063.02 924.902 1062.97 C 911.498 1104.81 912.111 1139.05 939.048 1175.62 C 900.848 1167.68 866.229 1178.17 837.984 1204.59 C 833.206 1209.28 828.447 1215.45 824.162 1220.72 C 818.897 1209.63 814.565 1196.16 812.79 1184.03 C 808.92 1156.45 816.064 1128.45 832.676 1106.1 C 851.877 1080.48 877.424 1067.77 908.688 1063.36 z" fill="rgb(13,14,16)" transform="translate(0,0)"></path>
<path d="M 1124.02 1062.94 C 1142.34 1063.02 1156.82 1065.67 1173.77 1073.12 C 1199.47 1084.17 1219.61 1105.13 1229.62 1131.25 C 1241.73 1162.86 1238.22 1190.48 1224.58 1220.61 L 1219.81 1214.42 C 1188.27 1178.6 1155.34 1169.06 1109.23 1175.57 C 1137.01 1135.3 1138.78 1108.59 1124.02 1062.94 z" fill="rgb(13,14,16)" transform="translate(0,0)"></path>
<path d="M 823.755 1236.4 C 826.709 1237.8 835.218 1249.47 838.399 1252.53 C 865.725 1278.84 899.025 1288.71 936.524 1282.73 C 916.067 1315.69 910.819 1346.08 923.582 1383.25 L 926.326 1390.13 L 925.216 1391.55 C 912.519 1395.61 880.412 1387.01 868.651 1380.6 C 815.425 1351.6 797.219 1290 823.755 1236.4 z" fill="rgb(13,14,16)" transform="translate(0,0)"></path>
<path d="M 1224.21 1236.7 C 1224.94 1237.37 1225.76 1238.04 1226.19 1238.98 C 1254.4 1300.23 1224.72 1369.61 1159.06 1388.03 C 1151 1390.29 1128.99 1394.25 1121.49 1391.55 L 1121.81 1389.59 C 1140.15 1355.31 1133.88 1315.51 1113.57 1283.74 C 1162.97 1286.03 1192.94 1276.81 1224.21 1236.7 z" fill="rgb(13,14,16)" transform="translate(0,0)"></path>
<path d="M 1112.34 1064.21 L 1114.71 1064.39 C 1125.43 1078.25 1125.81 1117.33 1120.85 1133.74 C 1115.88 1150.21 1108.01 1169.67 1093.39 1180.09 C 1087.12 1184.55 1078.87 1188.97 1072.21 1192.95 L 1036.97 1214.15 L 1029.31 1218.55 C 1029.94 1180.75 1022.68 1140.93 1043.71 1110.03 C 1061.2 1084.32 1082.17 1070.61 1112.34 1064.21 z" fill="rgb(13,14,16)" transform="translate(0,0)"></path>
<path d="M 1029.14 1236.47 C 1039.62 1241.13 1052.25 1251.26 1062.11 1257.5 C 1086.48 1272.91 1105.39 1277.59 1116.33 1306.82 C 1126.35 1333.59 1126.82 1356.33 1116.03 1382.82 L 1112.2 1390.59 C 1021.91 1367.84 1029.39 1311.25 1029.14 1236.47 z" fill="rgb(13,14,16)" transform="translate(0,0)"></path>
<path d="M 934.207 1063.46 C 955.597 1068.69 974.148 1076.94 989.976 1092.38 C 1026.73 1128.26 1019.33 1169.3 1019.42 1216.93 L 1018.17 1217.85 L 1015.11 1216.11 C 1003.64 1208.43 991.934 1201.13 979.998 1194.21 C 957.89 1181.31 945.241 1177.09 934.082 1152.28 C 920.294 1121.62 923.051 1094.3 934.207 1063.46 z" fill="rgb(13,14,16)" transform="translate(0,0)"></path>
<path d="M 1018.68 1236.9 C 1021.18 1241.25 1019.29 1254.61 1019.69 1259.9 C 1024.03 1316.82 1010.86 1363.82 953.006 1386.38 C 946.047 1389.09 938.574 1394.22 934.024 1386.13 C 918.406 1353.56 922.927 1304.84 951.352 1278.9 C 956.776 1273.95 971.245 1266.57 977.988 1262.55 C 991.842 1254.47 1005.42 1245.91 1018.68 1236.9 z" fill="rgb(13,14,16)" transform="translate(0,0)"></path>
<path d="M 1023.33 1324.67 C 1025.56 1326.79 1031.67 1342.55 1034.52 1346.93 C 1053.98 1376.81 1075.28 1390.23 1108.57 1398.73 C 1084.41 1424.84 1064.17 1437.01 1028.38 1440.1 C 991.211 1440.87 964.132 1426.22 940.889 1398.01 C 951.056 1395.76 960.899 1392.23 970.187 1387.53 C 996.47 1374.17 1014.11 1352.41 1023.33 1324.67 z" fill="rgb(13,14,16)" transform="translate(0,0)"></path>
<path d="M 1023.4 1034.44 C 1059.49 1034.74 1076.24 1040.55 1107.64 1057.18 C 1066.5 1067.33 1039.72 1090.15 1024.71 1129.77 L 1023.87 1131.75 C 1021.51 1129.37 1019.43 1120.04 1017.22 1115.65 C 1000.86 1083.15 975.467 1068.32 943.176 1056.41 C 969.639 1040.06 993.019 1035.77 1023.4 1034.44 z" fill="rgb(13,14,16)" transform="translate(0,0)"></path>
<metadata><recraft-signature>{"signed_by": "recraft", "signature_b64": "Z7SxNm7VS127gvf3IQ7Ws8B/mmOB1GFsHLtMtTQ3ifzF9pyzIlsdMOlJXBDTSf18/GZOBKlLcFvXXCBK9/ZxBQ==", "signing_algo": "Ed25519", "generation_timestamp": 1783906479, "identifier": "18b08e24-8cd9-461f-ae0c-7aa98f43accb"}</recraft-signature></metadata></svg>