<svg xmlns="http://www.w3.org/2000/svg" height="1024" preserveAspectRatio="none" style="display: block;" version="1.1" viewBox="0 0 2048 2048" width="1024">
<path d="M 0 0 L 2048 0 L 2048 2048 L 0 2048 L 0 0 z" fill="rgb(13,14,16)" transform="translate(0,0)"></path>
<path d="M 684.83 745.406 C 688.867 744.98 694.514 744.966 698.623 744.936 C 711.939 744.927 725.202 746.622 738.088 749.98 C 753.966 754.177 771.203 762.067 786.286 768.917 C 837.554 792.199 886.577 818.672 926.865 858.685 C 958.696 890.751 981.215 930.863 992.017 974.735 C 999.723 1006.64 998.8 1038.38 998.836 1070.88 L 998.792 1147.18 L 998.629 1391.74 C 996.235 1391.29 993.85 1390.79 991.475 1390.24 C 952.621 1381.32 918.999 1358.81 898.184 1324.71 C 864.268 1269.15 876.72 1209.13 893.02 1150.73 C 900.202 1124.99 908.704 1093.85 914.77 1068.16 C 877.791 1041.61 847.901 1012.23 828.013 970.415 C 808.793 930.074 799.722 880.883 805.406 836.457 C 771.715 811.41 734.097 795.39 690.329 799.411 C 625.107 805.402 571.44 877.739 647.647 918.857 C 678.847 935.692 713.486 933.287 743.755 956.543 C 762.796 970.984 775.126 992.565 777.897 1016.3 C 780.83 1039.78 774.18 1063.45 759.448 1081.97 C 746.191 1099.23 726.454 1110.32 704.817 1112.67 C 681.117 1115.39 657.295 1106.21 639.419 1090.98 C 588.565 1046.38 545.548 978.691 537.255 911.201 C 525.968 819.338 596.6 754.23 684.83 745.406 z" fill="rgb(236,72,153)" transform="translate(0,0)"></path>
<path d="M 1337.51 745.368 C 1350.98 743.471 1369.51 745.091 1382.62 747.77 C 1468.42 765.297 1529.88 837.902 1508.38 927.454 C 1493.49 988.473 1461.78 1039.09 1417.7 1083.19 C 1338.37 1162.54 1229.09 1068.31 1285.03 976.779 C 1295.69 959.336 1320.93 944.19 1340.44 938.538 C 1376.03 928.23 1425.42 921.016 1435.77 878.043 C 1444.94 838.49 1402.99 808.13 1368.95 801.384 C 1321.43 791.395 1281.52 811.425 1242.57 836.272 C 1247.06 875.038 1242.21 909.673 1229.67 946.272 C 1211.63 995.961 1178.35 1038.68 1134.58 1068.32 C 1149.49 1149.97 1199.77 1242.67 1151.31 1321.82 C 1125.84 1363.42 1096.91 1380 1050.65 1391.54 C 1049.34 1372.24 1050.05 1344.25 1050.03 1324.39 L 1049.99 1203.64 L 1049.93 1086.49 C 1049.93 1052.3 1048.48 1014.39 1055.15 981.099 C 1062.9 944.288 1078.91 909.721 1101.99 880.011 C 1126.79 848.613 1164.35 820.264 1199.55 801.319 C 1241.2 778.898 1289.93 750.919 1337.51 745.368 z" fill="rgb(236,72,153)" transform="translate(0,0)"></path>
<path d="M 1006.72 653.394 C 1025.5 650.105 1061.44 654.482 1079.67 659.66 C 1118.05 670.244 1152.89 690.934 1180.54 719.571 C 1186.24 725.514 1194.12 734.119 1198.11 741.304 C 1160.19 776.12 1092.57 792.043 1042.25 796.821 C 976.144 800.495 901.827 782.453 849.442 740.873 C 892.752 688.51 938.038 661.145 1006.72 653.394 z" fill="rgb(236,72,153)" transform="translate(0,0)"></path>
<metadata><recraft-signature>{"signed_by": "recraft", "signature_b64": "O2mt4HmzLgcV225CUaBRkCN/I584HmEhQrchIBV0knTqKr10S69vWgs2qsAF1A90Fh0NRw7jrhed7L0nLDrlBA==", "signing_algo": "Ed25519", "generation_timestamp": 1783906603, "identifier": "6f7410a5-ff13-4d9a-991a-4570caed7d52"}</recraft-signature></metadata></svg>