<svg xmlns="http://www.w3.org/2000/svg" height="1024" preserveAspectRatio="none" style="display: block;" version="1.1" viewBox="0 0 2048 2048" width="1024">
<path d="M 0 0 L 2048 0 L 2048 2048 L 0 2048 L 0 0 z" fill="rgb(13,14,16)" transform="translate(0,0)"></path>
<path d="M 1200.26 740.416 C 1241.54 737.506 1288.56 753.928 1320.83 779.407 C 1362.59 812.383 1390.32 863.3 1393.78 916.599 C 1397.2 966.308 1380.56 1015.31 1347.59 1052.67 C 1331.05 1071.33 1310.32 1092.12 1292.83 1110.04 L 1194.6 1210.08 C 1174.78 1230.82 1154.8 1251.42 1134.68 1271.87 C 1118.15 1288.65 1102.08 1310.18 1076.61 1310.75 C 1059.96 1311.12 1044.57 1306.02 1032.87 1293.77 C 1009.42 1269.22 985.63 1245.13 961.539 1221.22 C 951.423 1210.45 945.105 1204.34 944.775 1188.65 C 944.091 1156.05 974.931 1142.87 1001.08 1159.08 C 1004.82 1161.4 1008.88 1166.38 1012.06 1169.84 C 1026.88 1185.93 1042.36 1201.47 1057.63 1217.15 C 1062.45 1222.1 1067.56 1227.05 1072.47 1231.94 C 1129.93 1169.63 1192.36 1110.19 1250.92 1048.73 C 1293.37 1004.17 1333.42 977.928 1321.25 907.118 C 1315.88 875.924 1298.07 848.252 1271.9 830.451 C 1235.38 805.181 1180.33 806.132 1144.53 832.191 C 1131.65 841.57 1119.32 855.201 1108.15 866.741 L 1064.86 911.215 C 1049.21 927.11 1029.92 945.586 1007.06 927.59 C 999.444 921.491 994.721 912.494 994.023 902.766 C 993.002 889.866 998.077 878.82 1006.72 869.824 C 1021.12 854.845 1036.07 838.776 1050.67 824.13 C 1065.27 809.469 1085.33 786.548 1101.88 775.095 C 1130.19 755.509 1166.19 742.654 1200.26 740.416 z" fill="rgb(239,68,68)" transform="translate(0,0)"></path>
<path d="M 881.092 1152.59 C 896.558 1086.95 915.324 1018.97 931.684 953.208 C 936.215 934.993 955.175 935.211 963.227 954.419 C 977.146 987.625 990.391 1022.23 1003.83 1055.75 C 1005.72 1060.46 1007.7 1065.16 1009.17 1070.06 C 1043.13 1071.17 1077.58 1069.4 1111.59 1069.74 C 1116.83 1069.79 1122.79 1069.45 1127.92 1070.5 C 1147.97 1074.61 1146.77 1093.47 1132.15 1103.82 C 1106.34 1104.26 1080.52 1103.74 1054.71 1103.84 C 1037.22 1103.9 1019.06 1105.08 1001.64 1103.88 C 998.21 1103.64 992.158 1103.28 989.214 1101.33 C 983.142 1097.31 955.719 1024.31 950.747 1012.36 L 950.37 1013.42 C 945.986 1026.2 941.321 1048.18 937.717 1062.29 L 909.966 1171.43 C 906.782 1183.65 903.616 1195.91 900.292 1208.11 C 896.825 1220.83 892.583 1235.51 875.91 1230.18 C 865.98 1227 861.94 1203.88 859.076 1194.37 C 853.222 1174.86 847.468 1155.32 841.813 1135.76 C 833.105 1105.91 820.711 1069.58 813.607 1040.23 C 812.65 1037.29 811.668 1032.86 809.499 1031.06 C 806.99 1033.65 807.308 1035.1 806.187 1039.14 C 802.798 1049.86 790.786 1095.44 782.26 1101.3 C 777.014 1104.9 670.01 1105.69 662.517 1102.39 C 657.85 1100.34 654.839 1094.71 653.599 1090.02 C 652.614 1086.3 652.836 1082.7 654.872 1079.37 C 656.963 1075.96 660.559 1073.39 663.899 1071.29 C 686.178 1068.31 736.622 1071.06 761.88 1071.07 C 769.97 1045.78 778.39 1020.59 787.136 995.518 C 790.267 986.436 793.097 976.034 797.036 967.433 C 801.965 956.67 820.024 955.7 824.559 967.65 C 831.347 985.536 835.947 1004.13 841.68 1022.37 C 855.038 1064.45 866.501 1111.25 881.092 1152.59 z" fill="rgb(239,68,68)" transform="translate(0,0)"></path>
<path d="M 953.545 740.418 C 990.134 737.964 1029.22 749.511 1060.16 768.876 C 1047.83 783.328 1023.51 806.875 1009.39 821.842 C 971.03 808.561 934.107 806.364 898.172 828.795 C 871.401 845.174 852.364 871.654 845.367 902.247 C 843.368 911.385 843.014 921.111 842.635 930.417 C 812.415 915.854 796.775 917.076 771.586 939.687 C 768.449 891.72 786.621 840.474 818.42 804.667 C 854.52 764.017 899.881 744.1 953.545 740.418 z" fill="rgb(239,68,68)" transform="translate(0,0)"></path>
<metadata><recraft-signature>{"signed_by": "recraft", "signature_b64": "1V8Z1SLouGDnoSnHKzqnllBs9UiGe/e2UoZlximwlLGkXJwBHdIY0V7HCQ1jWq7MKXpKdjP9se51+tu23YaZBw==", "signing_algo": "Ed25519", "generation_timestamp": 1783898642, "identifier": "c4113eb4-98c7-4039-89bd-3a02bb823abf"}</recraft-signature></metadata></svg>