<svg xmlns="http://www.w3.org/2000/svg" height="1024" preserveAspectRatio="none" style="display: block;" version="1.1" viewBox="0 0 2048 2048" width="1024">
<path d="M 0 0 L 2048 0 L 2048 2048 L 0 2048 L 0 0 z" fill="rgb(13,14,16)" transform="translate(0,0)"></path>
<path d="M 1181.91 517.384 C 1239.11 509.895 1298.17 550.917 1314.62 604.616 C 1322.49 630.314 1321.32 651.106 1321.27 677.421 L 1321.08 743.933 C 1339.93 750.811 1360.62 766.307 1374.38 780.702 C 1399.77 807.24 1413.55 842.784 1412.7 879.497 C 1412.01 909.251 1402.01 938.041 1384.11 961.816 C 1337.27 1024.75 1280.67 1020.57 1210.5 1020.97 L 1126.41 1021.21 C 1112.53 1021.23 1086.15 1020.56 1073.53 1023.31 C 1062.84 1025.56 1053.02 1030.82 1045.21 1038.46 C 1035.52 1048.1 1030.2 1061.28 1030.5 1074.94 C 1030.94 1094.06 1041.32 1115.59 1059.71 1123 C 1075.41 1129.33 1093.93 1127.91 1110.69 1127.87 L 1169.93 1127.69 C 1187.44 1127.64 1207.12 1126.78 1224.11 1130.35 C 1245.74 1135.03 1265.64 1145.63 1281.6 1160.95 C 1305.35 1183.5 1319.02 1214.65 1319.56 1247.38 C 1320.22 1282.04 1309.47 1311.5 1285.29 1336.43 C 1326.61 1381.49 1332.4 1444.8 1295.35 1494.48 C 1276.51 1519.78 1248.31 1536.46 1217.07 1540.77 C 1199.89 1543.09 1161.31 1542.55 1142.53 1542.27 C 1118.13 1541.9 1074.53 1544.18 1053 1539.86 C 1035.57 1536.36 1019.16 1528.94 1005.02 1518.16 C 962.521 1485.33 947.725 1424.03 967.481 1374.94 C 973.409 1360.21 982.407 1349.01 992.119 1336.78 C 952.891 1295.23 946.695 1228.44 980.218 1181.58 C 984.333 1175.83 988.738 1170.53 993.256 1165.09 C 980.624 1152.33 975.855 1143.9 967.884 1127.92 C 947.005 1138.44 924.016 1144.11 900.638 1144.5 C 857.773 1145.16 816.474 1128.4 786.196 1098.05 C 755.87 1068.22 740.212 1028.34 739.692 986.039 C 704.261 952.003 672.11 920.771 652.977 874.511 C 643.441 850.826 637.977 825.7 636.815 800.194 C 634.077 736.57 654.878 679.523 698.358 632.713 C 735.192 592.856 786.269 569.149 840.487 566.746 C 896.935 564.756 942.385 580.122 985.31 618.78 C 1063.08 689.058 1036.64 786.666 1042.78 878.509 C 1047.93 955.714 989.276 932.339 937.327 936.116 C 893.342 939.314 850.032 934.278 816.956 901.391 C 793.855 878.155 780.747 846.813 780.429 814.049 C 780.344 778.223 794.064 744.64 819.173 718.867 C 854.849 682.246 898.876 689.556 946.731 689.664 C 935.551 674.623 925.624 665.265 908.639 656.609 C 877.443 640.751 841.173 638.131 808.022 649.341 C 721.285 677.98 685.581 785.886 731.316 862.934 C 745.776 887.294 766.014 906.185 786.217 925.761 C 794.247 933.542 804.804 941.943 810.636 951.779 C 820.123 972.34 813.222 993.66 820.842 1016.28 C 827.255 1035.63 841.271 1051.54 859.662 1060.34 C 890.942 1075.47 942.71 1071.27 961.179 1037.85 C 964.6 1031.66 967.456 1023.66 970.703 1017.13 C 984.661 988.746 1008.64 966.545 1038.01 954.809 C 1047.74 950.906 1057.18 948.624 1067.04 945.371 L 1067.02 731.714 L 1066.93 673.187 C 1066.9 645.985 1065.32 623.618 1076.23 597.89 C 1095.76 551.821 1132.57 523.633 1181.91 517.384 z" fill="rgb(94,234,212)" transform="translate(0,0)"></path>
<path d="M 1188.11 592.3 C 1225.49 588.475 1245.48 616.212 1244.85 650.748 C 1242.72 678.638 1247.59 718.22 1244.71 744.93 C 1236.2 823.992 1310.55 791.298 1332.89 853.9 C 1339.01 871.505 1337.89 890.818 1329.79 907.602 C 1321.65 924.184 1307.69 935.987 1290.26 941.796 C 1274.06 946.537 1240.87 945.113 1222.75 945.11 C 1196.16 945.021 1169.58 945.073 1142.99 945.265 C 1142.54 874.05 1142.49 802.833 1142.84 731.617 L 1142.75 674.165 C 1142.66 645.467 1138.88 616.39 1167.74 599.169 C 1174.86 594.919 1180.17 593.574 1188.11 592.3 z" fill="rgb(13,14,16)" transform="translate(0,0)"></path>
<path d="M 1076.13 1203.23 C 1088.09 1202.72 1100.48 1203.06 1112.48 1203 C 1134.72 1202.89 1156.98 1203 1179.22 1202.87 C 1195.37 1202.77 1208.78 1201.39 1222.98 1210.85 C 1233.62 1217.94 1240.95 1229.02 1243.32 1241.59 C 1248.74 1270.45 1231.38 1294.8 1202.48 1299.89 C 1164.09 1300.7 1113.6 1300.88 1075.49 1299.71 C 1028.79 1298.28 1011.16 1217.71 1076.13 1203.23 z" fill="rgb(13,14,16)" transform="translate(0,0)"></path>
<path d="M 1077.02 1375.43 L 1161.26 1375.17 C 1196.35 1375.05 1242.79 1369.77 1243.39 1423.45 C 1243.65 1446.64 1226.37 1463.93 1203.25 1466.87 C 1176.38 1467.27 1149.2 1466.85 1122.26 1467.04 C 1105.5 1466.51 1089.08 1468.41 1072.36 1466.22 C 1034.98 1461.32 1023.59 1419.98 1044.48 1391.91 C 1052.62 1380.96 1063.89 1376.78 1077.02 1375.43 z" fill="rgb(13,14,16)" transform="translate(0,0)"></path>
<path d="M 893.912 763.178 C 915.301 761.891 944.056 762.648 965.91 762.711 L 965.999 861.274 C 953.532 861.14 940.372 861.496 927.855 861.643 C 913.452 861.757 889.555 863.34 877.652 855.797 C 837.668 830.46 849.826 774.946 893.912 763.178 z" fill="rgb(13,14,16)" transform="translate(0,0)"></path>
<metadata><recraft-signature>{"signed_by": "recraft", "signature_b64": "FQdrGGtWov5FqpEX5vJvbbnijD0gh+PVjIBvfej7BXpX/qKj6LqaSuSpbF8BzuEac58wyuomvmOuHn2VRM4jDg==", "signing_algo": "Ed25519", "generation_timestamp": 1783906598, "identifier": "44aae959-c34a-434d-b3fb-ab6badc70216"}</recraft-signature></metadata></svg>