<svg xmlns="http://www.w3.org/2000/svg" height="1024" preserveAspectRatio="none" style="display: block;" version="1.1" viewBox="0 0 2048 2048" width="1024">
<path d="M 0 0 L 2048 0 L 2048 2048 L 0 2048 L 0 0 z" fill="rgb(13,14,16)" transform="translate(0,0)"></path>
<path d="M 1027.31 434.276 C 1031.93 433.882 1035.66 433.854 1040.22 434.649 C 1092.15 443.696 1087.21 487.71 1087 525.727 L 1086.73 586.524 C 1086.66 592.683 1084.85 604.947 1089.48 609.443 C 1090.56 610.488 1092.08 611.359 1093.6 611.366 C 1101.6 611.405 1135.02 587.513 1145.88 582.408 C 1153.57 578.797 1169.11 574.234 1174.71 567.978 C 1181.42 560.49 1178.07 514.55 1178.03 502.02 C 1177.97 482.664 1179.1 464.314 1193.95 449.904 C 1205.29 438.894 1221.77 433.092 1237.5 433.864 C 1248.42 434.4 1257.41 438.147 1265.97 444.758 C 1303.11 473.434 1278.89 522.87 1291.69 535.342 C 1293.61 537.219 1297.18 537.439 1299.75 537.408 C 1308.48 537.302 1317.65 535.236 1326.34 534.158 C 1340.72 532.299 1355.18 531.074 1369.67 530.486 C 1394 529.415 1416.79 528.638 1435.82 546.731 C 1446.54 556.964 1452.54 571.177 1452.41 585.994 C 1452.39 608.952 1438.85 628.956 1416.92 637.219 C 1399.43 643.804 1379.75 641.314 1361.38 642.012 C 1353.56 642.31 1345.83 642.354 1337.97 642.802 C 1245.25 648.091 1155.43 686.328 1090.26 753.014 C 1080.66 762.839 1071.19 772.839 1063.54 784.32 C 1051.54 801.544 1012.11 879.585 1012.13 898.105 C 1017.68 911.191 1039.92 894.222 1049.36 889.999 C 1074.68 878.827 1101.5 871.436 1128.97 868.06 C 1205.47 858.956 1282.48 880.418 1343.24 927.78 C 1468.14 1026.25 1490.54 1197.34 1390.98 1322.34 C 1374.78 1341.49 1358.06 1357.6 1340.35 1375.26 L 1273.77 1441.75 L 1207.84 1507.84 C 1161.95 1554.2 1121.71 1596.79 1053.9 1608.6 C 1004.58 1617.18 953.747 1602.36 912.683 1574.78 C 892.329 1561.11 873.278 1541.13 855.884 1523.91 C 832.559 1500.66 809.355 1477.29 786.273 1453.8 L 713.429 1381 C 654.702 1322.06 615.55 1281.94 600.632 1195.44 C 588.305 1122.85 605.598 1048.36 648.639 988.636 C 694.445 924.24 764.269 881.022 842.335 868.747 C 861.544 865.69 881.201 866.81 900.44 864.757 C 912.407 863.48 915.554 844.521 918.855 834.726 C 922.412 823.971 926.434 813.374 930.909 802.968 C 945.728 769.138 965.153 740.39 985.247 710.047 C 985.061 691.758 981.213 665.567 979.975 646.259 C 977.977 612.579 977.171 578.505 977.662 544.744 C 978.334 498.532 966.262 444.064 1027.31 434.276 z" fill="rgb(220,38,38)" transform="translate(0,0)"></path>
<path d="M 1157.46 977.42 C 1158.64 977.32 1159.82 977.251 1161 977.214 C 1257.44 974.772 1337.82 1053.53 1338.86 1149.5 C 1339.01 1180.68 1330.44 1211.29 1314.11 1237.85 C 1302.99 1255.64 1282.81 1274.2 1267.6 1289.5 C 1246.57 1310.77 1225.36 1331.88 1203.99 1352.81 C 1167.22 1389.16 1130.56 1427.52 1094.12 1464.38 C 1070.83 1487.95 1058.66 1499.28 1023.14 1499.63 C 986.875 1499.99 970.492 1482.67 947.098 1458.53 C 936.797 1447.87 926.411 1437.29 915.94 1426.8 L 811.641 1321.13 C 792.743 1302.23 750.084 1262.1 736.909 1241.59 C 722.434 1219.07 713.694 1193.35 711.455 1166.68 C 707.36 1119.74 722.236 1073.12 752.76 1037.24 C 805.743 975.323 891.725 961.489 963.997 996.861 C 970.957 1000.26 977.71 1004.08 984.218 1008.28 C 994.025 1014.68 1015.86 1033.36 1025.82 1031.21 C 1044.42 1027.19 1066.63 1003.83 1087 995.11 C 1113.96 983.57 1128.51 979.563 1157.46 977.42 z" fill="rgb(13,14,16)" transform="translate(0,0)"></path>
<path d="M 650.41 497.303 C 664.926 496.461 687.497 501.721 701.3 505.948 C 842.254 549.117 924.883 683.939 881.639 828.112 C 851.43 830.203 833.533 831.871 804.075 838.801 C 787.595 843.131 774.136 846.913 758.288 853.013 C 777.493 813.917 788.831 770.861 780.533 727.446 C 771.563 672.729 724.642 625.773 671.097 612.698 C 638.349 604.701 603.79 602.916 597.499 558.967 C 595.416 544.828 599.252 530.456 608.103 519.235 C 619.427 504.668 633.003 499.603 650.41 497.303 z" fill="rgb(220,38,38)" transform="translate(0,0)"></path>
<path d="M 1371.57 722.417 C 1385.57 720.81 1408.99 721.319 1422.24 726.789 C 1435.82 732.514 1446.44 743.576 1451.62 757.376 C 1456.9 771.417 1455.73 787.107 1449.05 800.798 C 1429.04 841.821 1388.11 828.457 1350.66 836.318 C 1325.13 841.68 1316.63 845.478 1292.95 853.87 C 1280.01 848.595 1267.44 844.799 1254 841.156 C 1220.65 832.306 1190.29 829.686 1155.83 828.921 C 1156.96 827.446 1158.14 826.009 1159.36 824.614 C 1209.47 766.647 1295.55 727.41 1371.57 722.417 z" fill="rgb(220,38,38)" transform="translate(0,0)"></path>
<metadata><recraft-signature>{"signed_by": "recraft", "signature_b64": "0nB5Nuk+erNNmKf4lNqbAC+hya+diG0AYDwU7Q7tO3oPjfn/w7lzlRg15346SNxMpMMMnot2mXDL5aoPCm4LAA==", "signing_algo": "Ed25519", "generation_timestamp": 1783906605, "identifier": "6ccc7de1-fd52-4d6b-9453-d4b75fee94f2"}</recraft-signature></metadata></svg>