<svg xmlns="http://www.w3.org/2000/svg" height="1024" preserveAspectRatio="none" style="display: block;" version="1.1" viewBox="0 0 2048 2048" width="1024">
<path d="M 0 0 L 2048 0 L 2048 2048 L 0 2048 L 0 0 z" fill="rgb(13,14,16)" transform="translate(0,0)"></path>
<path d="M 912.532 675.496 C 996.925 674.829 1081.32 674.712 1165.72 675.143 C 1255.74 675.563 1330.58 732.902 1355.28 819.996 C 1363.48 848.878 1361.92 881.149 1361.93 911.013 L 1361.93 984.604 L 1361.96 1169.57 C 1361.54 1228.87 1345.43 1276.31 1302.23 1318.57 C 1272.1 1348.09 1232.98 1366.71 1191.07 1371.47 C 1173.47 1373.32 1154.33 1372.71 1136.5 1372.49 L 950.705 1372.29 C 915.771 1372.26 867.273 1375.39 834.542 1367.57 C 801.353 1359.33 770.948 1342.42 746.437 1318.58 C 705.34 1278.11 687.59 1230.91 687.162 1173.51 L 687.05 983.31 L 686.957 915.778 C 686.881 841.679 689.397 788.356 745.347 731.759 C 776.514 699.632 818.326 679.971 862.95 676.46 C 877.215 675.195 897.769 675.576 912.532 675.496 z" fill="rgb(37,99,235)" transform="translate(0,0)"></path>
<path d="M 1032.78 722.393 C 1071.03 717.813 1115.02 732.22 1144.27 756.95 C 1209.43 812.035 1223.71 896.661 1167.82 963.973 C 1212.31 991.598 1212.69 1049.95 1168.43 1079.36 C 1175.22 1089.89 1181.56 1099.83 1187.39 1110.97 C 1222.2 1177.46 1192.07 1257.86 1132.25 1298.11 C 1097.65 1321.83 1054.93 1330.6 1013.78 1322.42 C 978.864 1312.65 942.208 1290.54 913.901 1267.65 C 847.803 1214.21 781.604 1135.95 772.154 1048.49 C 764.076 973.727 794.235 912.217 838.843 855.347 C 879.146 803.967 966.251 729.935 1032.78 722.393 z" fill="rgb(13,14,16)" transform="translate(0,0)"></path>
<path d="M 1036.63 774.284 C 1047.89 772.882 1059.3 773.42 1070.37 775.874 C 1119.78 786.927 1159.99 841.68 1148.11 892.682 C 1144.79 906.464 1138.3 919.283 1129.16 930.121 C 1102.97 961.606 1074.71 956.969 1037.75 956.843 C 1029.83 956.816 1024.04 956.689 1017.18 961.032 C 1000.33 971.704 1000.13 999.964 1021.18 1005.6 C 1031.18 1008.2 1043.07 1007.76 1053.74 1007.74 C 1070.13 1007.71 1086.53 1007.58 1102.92 1007.35 C 1115.66 1007.2 1153.16 1002.07 1147.81 1024.3 C 1144.45 1038.29 1121.51 1035.88 1110.38 1035.86 L 1057.17 1035.76 C 1044.09 1035.74 1026.48 1033.92 1015.22 1040.46 C 1004.3 1046.8 1003.59 1066.95 1010.81 1076.35 C 1018.58 1087.75 1035.88 1087.95 1048.73 1086.87 C 1087.09 1083.64 1111.87 1089.43 1134.17 1123.11 C 1149.3 1145.95 1153.04 1165.74 1147.63 1193.18 C 1135.34 1232.96 1107.28 1263.27 1065.32 1271.7 C 1027.57 1279.28 995.391 1262.25 964.559 1240.45 C 902.662 1196.69 841.628 1129.59 824.491 1053.88 C 814.782 1003.31 835.214 948.428 864.567 907.381 C 896.683 861.885 938.084 823.719 986.039 795.404 C 1003.5 785.144 1016.6 777.583 1036.63 774.284 z" fill="rgb(37,99,235)" transform="translate(0,0)"></path>
<metadata><recraft-signature>{"signed_by": "recraft", "signature_b64": "Sn2J234iFA5SfnLvqEfaCQQkGCClfFOWLSW2PKkxKr5jEwPhhs53c8AUKeDSToBDs+MC41bsx6WVGC8iBjl4AA==", "signing_algo": "Ed25519", "generation_timestamp": 1783906537, "identifier": "4f7cfead-5334-4c19-9a36-273af617d6bd"}</recraft-signature></metadata></svg>