<svg xmlns="http://www.w3.org/2000/svg" height="1024" preserveAspectRatio="none" style="display: block;" version="1.1" viewBox="0 0 2048 2048" width="1024">
<path d="M 0 0 L 2048 0 L 2048 2048 L 0 2048 L 0 0 z" fill="rgb(13,14,16)" transform="translate(0,0)"></path>
<path d="M 1043.56 564.227 C 1063.05 536.77 1104.99 540.693 1129.09 559.409 C 1135.69 564.534 1139.89 568.858 1145.43 575.133 C 1198.3 566.485 1232.53 586.298 1255.9 633.501 C 1334.81 648.021 1357.2 732.002 1317.91 796.223 C 1312 805.161 1304.64 813.051 1296.13 819.57 C 1269.97 839.254 1241.31 841.029 1210.3 836.607 C 1202.42 806.894 1190.94 785.961 1163.61 768.641 C 1128.06 746.112 1077.63 743.955 1038.4 757.925 C 1026.87 762.26 1016.63 770.804 1005.03 774.584 C 997.308 776.642 992.067 761.825 988.764 756.728 C 966.709 722.694 919.572 701.162 879.517 707.709 C 850.276 712.489 822.223 726.267 795.358 706.361 C 774.647 691.016 764.478 672.707 775.947 647.973 C 794.859 599.871 830.024 588.131 879.608 582.957 C 898.684 561.084 920.733 549.676 949.612 545.319 C 964.994 544.14 978.403 545.256 992.575 551.847 C 1004.77 557.571 1015.06 566.684 1022.22 578.097 C 1032.14 593.838 1033.06 594.518 1050.12 602.82 C 1070.09 612.544 1083.21 629.2 1089.74 650.225 C 1095.08 660.196 1092.83 681 1097.09 689.777 C 1103.42 702.822 1122.39 699.743 1125.46 684.858 C 1129.62 664.69 1121.03 638.363 1111.97 621.084 C 1097.44 593.945 1072.9 573.546 1043.56 564.227 z" fill="rgb(99,102,241)" transform="translate(0,0)"></path>
<path d="M 748.264 702.717 C 752.599 704.218 762.81 718.458 767.42 723.167 C 779.135 734.958 794.035 743.076 810.294 746.527 C 854.194 755.575 882.89 725.286 925.355 744.092 C 938.336 749.841 951.227 761.372 960.165 772.306 C 969.824 784.122 976.889 800.75 992.011 806.893 C 1010.14 814.258 1028.12 797.196 1045.03 790.17 C 1073.16 778.488 1103.38 777.076 1131.87 788.404 C 1150.58 795.845 1167.07 810.266 1174.8 829.03 C 1181.16 844.257 1181.14 861.396 1174.75 876.609 C 1152.39 929.644 1087.47 925.829 1043.07 906.344 C 1042.53 937.099 1041.21 989.03 1043.06 1018.94 C 1046.47 1024.56 1050.84 1029.78 1057.65 1030.98 C 1081.47 1035.21 1108.35 1029.93 1132.21 1033.15 L 1133.56 1033.34 C 1147.89 1044.39 1147.57 1058.07 1132.97 1068.74 C 1127.01 1069.84 1121 1069.4 1115.03 1070.09 C 1093.78 1072.51 1100.08 1089.08 1089.47 1101.1 C 1085.68 1105.39 1081.65 1106.6 1076.11 1106.96 C 1061.56 1107.9 962.815 1109.35 956.143 1104.26 C 946.099 1096.61 951.905 1080.82 940.746 1073.73 C 931.449 1067.82 917.087 1073.23 909.135 1065.6 C 905.075 1061.71 903.227 1054.39 903.436 1048.92 C 904.718 1015.39 983.193 1044.47 999.99 1024.88 C 1002.67 1021.75 1003.26 1015.7 1003.62 1011.72 C 1004.9 997.642 1003.98 982.746 1003.96 968.589 L 1003.85 884.969 C 946.986 864.314 894.951 858.018 837.461 879.27 C 796.568 894.386 765.869 901.238 736.467 861.759 C 718.262 837.314 709.053 804.382 713.113 773.811 C 716.248 750.198 728.916 717.473 748.264 702.717 z" fill="rgb(99,102,241)" transform="translate(0,0)"></path>
<path d="M 916.968 1417.14 C 926.692 1416.95 943.518 1416.29 952.943 1417.71 C 958.845 1419.48 963.481 1423.74 969.873 1423.86 C 1004.57 1424.54 1039.33 1424.49 1074.03 1424.54 C 1081.55 1424.18 1088.94 1420.56 1096.21 1418.66 C 1103.46 1416.76 1111.6 1416.61 1119.09 1416.69 C 1128.93 1416.79 1140.9 1417.12 1144.64 1428.2 C 1148.44 1439.47 1143.78 1449.12 1131.98 1451.64 C 1118.04 1454.61 1109.92 1453.89 1104.12 1468.2 C 1103.84 1469.14 1103.56 1470.08 1103.27 1471.02 C 1090.04 1512.48 1009.73 1510.71 977.189 1499.7 C 966.788 1496.53 951.667 1489.22 948.095 1478.35 C 940.45 1455.09 936.076 1454.13 913.068 1451.1 C 903.922 1449.89 900.999 1435.58 903.778 1428.07 C 905.9 1422.33 911.504 1419.31 916.968 1417.14 z" fill="rgb(99,102,241)" transform="translate(0,0)"></path>
<path d="M 923.021 1110.34 C 932.686 1110.45 944.416 1110.21 953.927 1111.33 C 958.629 1111.89 962.365 1115.16 968.848 1115.23 C 998.354 1115.52 1028.19 1115 1057.66 1115.16 C 1074.32 1115.26 1080.71 1113.1 1096.56 1110.83 C 1104.6 1109.68 1127.36 1110.13 1135.41 1111.1 C 1153.18 1126.92 1146.34 1149.04 1122.15 1148.48 C 1112.58 1148.26 1109.14 1149.32 1102.45 1156 C 1098.45 1162.58 1097.53 1180.16 1088.59 1182.49 C 1075.84 1185.14 1057.03 1185.94 1043.93 1184.95 C 1020.75 1183.2 978.436 1188.49 957.769 1182.34 C 945.468 1170.17 950.56 1156.25 935.906 1149.81 C 927.907 1146.98 916.909 1148.96 909.568 1144.37 C 901.334 1139.23 900.986 1123.62 907.01 1116.53 C 911.601 1111.12 916.417 1111.04 923.021 1110.34 z" fill="rgb(99,102,241)" transform="translate(0,0)"></path>
<path d="M 1102.1 1189.52 C 1108.58 1189.34 1118.15 1188.48 1124.32 1189.35 C 1148.54 1192.76 1149.36 1213.73 1131.96 1226.99 C 1124.61 1227.74 1115.61 1226.35 1108.71 1228.38 C 1091.26 1233.51 1098.69 1264.6 1076.53 1264.6 C 1040.04 1264.6 1002.9 1265.98 966.541 1263.61 C 961.408 1263.28 957.092 1257.82 954.624 1253.92 C 945.946 1214.46 933.904 1237.23 908.961 1222.97 C 900.692 1218.24 901.212 1189.4 922.237 1189.95 C 974.275 1191.32 1026.21 1193.64 1078.35 1192.64 C 1085.74 1192.5 1092.91 1189.37 1102.1 1189.52 z" fill="rgb(99,102,241)" transform="translate(0,0)"></path>
<path d="M 919.794 1342.3 C 940.148 1341.15 950.492 1342.77 970.378 1345.58 C 976.261 1346.41 992.205 1346.23 998.975 1346.18 C 1024.35 1346.01 1050.39 1346.61 1075.7 1346.01 C 1085.72 1345.76 1100.7 1340.45 1112.93 1341.59 C 1120.76 1342.33 1131.1 1340.64 1137.5 1347.71 C 1140.58 1350.98 1143.79 1357.62 1143.12 1362.26 C 1139.79 1385.28 1118.41 1374.4 1103.44 1387.64 C 1100.03 1393.04 1098.9 1399.76 1097.35 1406.09 C 1092.05 1411.78 1086.58 1416.81 1078.24 1416.88 C 1045.37 1417.15 1012.37 1417.08 979.516 1417.18 C 955.96 1417.26 956.248 1411.85 949.84 1390.89 C 945.528 1377.79 926.81 1381.43 916.207 1377.63 C 905.515 1373.8 904.326 1361.08 908.233 1351.59 C 910.58 1346.12 914.276 1344.16 919.794 1342.3 z" fill="rgb(99,102,241)" transform="translate(0,0)"></path>
<path d="M 891.835 891.402 C 903.924 889.744 968.127 891.409 972.491 903.756 C 990.351 954.285 929.332 957.355 901.463 975.732 C 893.705 988.805 897.863 996.256 882.977 1004.62 C 876.256 1005.2 869.518 1005.56 862.774 1005.71 C 850.054 1006.03 843.904 1005.83 834.858 997.206 C 824.949 974.097 839.331 971.517 807.823 962.423 C 800.33 960.26 795.819 924.017 803.648 919.69 C 829.461 905.422 862.23 894.718 891.835 891.402 z" fill="rgb(99,102,241)" transform="translate(0,0)"></path>
<path d="M 1091.04 1265 C 1100.63 1264.94 1115.2 1263.85 1124.12 1265.3 C 1148.29 1269.21 1148.36 1289.88 1129.37 1301.96 C 1104.74 1302.02 1102.62 1304.94 1097.3 1328.64 C 1094.34 1333.09 1088.86 1338.32 1083.11 1338.5 C 1044.84 1339.7 1005.88 1339.76 967.624 1338.25 C 962.329 1338.04 954.301 1333.2 953.375 1328.21 C 947.018 1293.91 936.038 1307.66 911.887 1297.83 C 905.971 1295.4 904.769 1277.76 910.87 1271.86 C 919.875 1263.17 939.423 1265.65 951.499 1265.5 C 959.128 1265.71 965.126 1271.53 972.361 1271.75 C 984.979 1272.15 998.133 1272.03 1010.76 1272.06 C 1034.43 1272.24 1058.1 1272.19 1081.76 1271.91 L 1091.04 1265 z" fill="rgb(99,102,241)" transform="translate(0,0)"></path>
<metadata><recraft-signature>{"signed_by": "recraft", "signature_b64": "QMRZnL52SONXicN6NZJrk7s5V7D3zSQC+AeoeKeFCYWNdOiOgOsQ8e7vL66KU6G3PlPXgTKdGqOZPwFdgHlGAw==", "signing_algo": "Ed25519", "generation_timestamp": 1783906464, "identifier": "fb6602f7-aae0-4dde-9c26-5f1793b69e1e"}</recraft-signature></metadata></svg>