<svg xmlns="http://www.w3.org/2000/svg" height="1024" preserveAspectRatio="none" style="display: block;" version="1.1" viewBox="0 0 2048 2048" width="1024">
<path d="M 0 0 L 2048 0 L 2048 2048 L 0 2048 L 0 0 z" fill="rgb(13,14,16)" transform="translate(0,0)"></path>
<path d="M 1193.07 711.369 C 1218.33 708.566 1237.36 711.737 1261.04 720.416 C 1289.65 730.901 1324.52 757.202 1337.03 785.499 C 1373.01 776.535 1405.37 805.91 1389.14 840.495 C 1384.55 850.231 1376.12 857.624 1365.86 860.91 C 1355.13 864.464 1343.4 863.399 1333.48 857.972 C 1323.91 852.873 1316.8 844.121 1313.78 833.704 C 1311.11 824.379 1311.93 813.938 1316.58 805.362 C 1306.9 793.311 1295.7 782.573 1283.24 773.422 C 1252.21 750.879 1208.4 738.519 1171.48 753.919 C 1156.84 760.025 1147.76 770.053 1138.65 782.597 C 1183.74 791.434 1219.27 809.249 1247.15 847.201 C 1236.46 849.176 1225.93 851.981 1215.67 855.589 C 1166.58 872.862 1141.78 904.119 1120.28 949.094 C 1118.35 949.068 1116.42 949.099 1114.5 949.186 C 1070.69 951.131 1026.05 967.299 993.248 996.863 C 981.941 1007.05 972.067 1018.7 961.814 1029.95 C 903.646 1027.95 859.347 1051.63 837.764 1107.27 C 833.539 1121.61 832.531 1130.63 832.031 1145.45 C 789.441 1152.37 755.156 1142.39 725.203 1109.99 C 704.016 1087.07 695.129 1056.92 696.959 1025.98 C 698.766 996.533 712.26 969.025 734.442 949.57 C 763.624 923.825 805.405 915.966 842.505 927.012 C 852.587 930.013 873.393 942.321 881.537 934.77 C 887.621 929.13 890.177 916.887 882.147 911.518 C 856.634 894.457 822.821 890.268 792.79 892.174 C 816.325 824.015 873.071 782.658 946.318 782.611 C 963.429 782.601 987.049 785.449 1002.97 791.836 C 989.475 802.566 935.165 854.255 960.767 870.675 C 964.156 872.869 968.29 873.596 972.224 872.687 C 978.805 871.183 981.894 867.352 984.75 861.616 C 1001.66 827.651 1033.44 802.465 1068.81 789.771 C 1077.31 786.722 1088.15 784.522 1097.33 782.402 C 1118.52 739.508 1144.57 717.722 1193.07 711.369 z" fill="rgb(165,180,252)" transform="translate(0,0)"></path>
<path d="M 1258.46 878.423 C 1312.79 877.303 1362.11 912.281 1363.19 969.471 C 1364.3 1005.01 1342.57 1036.99 1309.41 1049.46 C 1299.73 1054.02 1274.64 1054.92 1277 1070.58 C 1279.15 1082.92 1287.11 1086.35 1298.65 1084.32 C 1334.01 1078.08 1356.81 1060.25 1377.18 1031.67 C 1381.01 1037.78 1384.06 1044.41 1385.14 1051.6 C 1398.23 1139.1 1341.11 1213.41 1255.85 1229.63 C 1255.75 1202.33 1251.15 1178.11 1237.34 1154.13 C 1221.21 1126.06 1194.46 1105.68 1163.11 1097.57 C 1125.5 1087.85 1099.46 1094.16 1066.81 1113.36 C 1040.98 1131.85 1033.47 1148.05 1022.16 1176.69 C 1000.66 1227.14 936.89 1242.18 893.926 1207.89 C 830.172 1157.02 870.193 1058.02 949.625 1059.99 C 953.703 1059.69 974.292 1064.6 976.543 1062.49 C 984.734 1054.83 999.297 1033.82 1007.5 1025.62 C 1020.57 1012.55 1035.9 1001.97 1052.75 994.377 C 1090.4 977.469 1133.46 977.407 1171.89 991.285 C 1179.92 993.344 1186.51 999.334 1194.14 1001.98 C 1202.27 1004.8 1212.66 998.809 1213.95 990.381 C 1216.16 975.868 1200.08 970.359 1189.6 965.895 C 1177.24 960.632 1165.09 957.482 1152.1 954.768 C 1157.46 942.26 1164.67 930.626 1173.48 920.254 C 1195.95 894.296 1224.5 880.746 1258.46 878.423 z" fill="rgb(165,180,252)" transform="translate(0,0)"></path>
<path d="M 1121.61 1124.33 C 1144.35 1120.61 1174.8 1131.87 1191.92 1146.72 C 1232.98 1182.32 1224.1 1235.62 1224.74 1283.93 C 1223.86 1300.41 1226.54 1319.16 1224.35 1335.42 C 1220.54 1363.83 1188.69 1370.94 1169.92 1351.15 C 1158.37 1334.25 1166.7 1317.08 1162.94 1298.4 C 1154.57 1256.83 1110.3 1270.18 1079.55 1248.17 C 1065.06 1237.61 1055.39 1221.71 1052.69 1203.99 C 1046.71 1162.44 1082.83 1129.72 1121.61 1124.33 z" fill="rgb(165,180,252)" transform="translate(0,0)"></path>
<path d="M 727.799 1180.23 C 730.762 1179.9 735.943 1179.7 738.871 1179.96 C 749.582 1180.83 759.498 1185.95 766.402 1194.19 C 777.064 1207.13 776.408 1219.4 774.748 1234.55 C 800.884 1257.47 826.318 1269.37 861.172 1272.99 C 911.431 1278.22 947.21 1249.08 983.815 1217.98 C 985.38 1244.12 985.418 1253.18 965.881 1272.67 C 905.976 1327.14 802.77 1321.06 754.176 1254.58 C 751.815 1255.51 749.416 1256.34 746.985 1257.06 C 736.225 1260.3 724.267 1259.38 714.429 1253.8 C 705.125 1248.52 698.44 1239.6 695.982 1229.19 C 690.059 1204.92 703.982 1185.4 727.799 1180.23 z" fill="rgb(165,180,252)" transform="translate(0,0)"></path>
<path d="M 1035.6 1229.04 C 1061.38 1230.44 1055.2 1258.52 1055.11 1278.18 L 1054.94 1335.23 C 1077.91 1346.21 1084.73 1373.2 1069.52 1394.25 C 1061.75 1405 1049.99 1408.67 1037.33 1410.5 C 1021.68 1410.47 1009.51 1404.02 1001.42 1390.33 C 995.897 1381.17 994.467 1370.12 997.474 1359.85 C 1001.08 1347.32 1008.2 1340.95 1019.04 1335.12 C 1019.41 1320.16 1017.28 1247.23 1021.35 1239.08 C 1024.26 1233.25 1029.72 1230.96 1035.6 1229.04 z" fill="rgb(165,180,252)" transform="translate(0,0)"></path>
<path d="M 1028.92 637.152 C 1045.92 635.942 1061.37 640.642 1070.64 655.964 C 1076.1 665.136 1077.7 676.096 1075.1 686.448 C 1071.73 699.504 1063.59 706.241 1052.69 712.676 C 1053.03 731.311 1053.12 749.951 1052.94 768.589 C 1049.43 774.545 1047.94 776.035 1042.19 779.899 C 1008.24 790.658 1016.97 731.351 1017.06 711.471 C 1015.3 710.571 1013.57 709.626 1011.86 708.636 C 1003.86 703.941 998.124 695.247 995.989 686.295 C 993.557 675.763 995.388 664.696 1001.08 655.508 C 1007.95 644.612 1017 640.138 1028.92 637.152 z" fill="rgb(165,180,252)" transform="translate(0,0)"></path>
<path d="M 690.875 792.391 C 721.348 792.451 742.571 815.666 732.418 845.726 C 740.865 854.542 759.773 874.849 764.514 885.951 C 770.317 899.542 751.217 914.115 736.783 905.39 C 726.2 894.383 715.529 882.328 705.199 871.002 C 691.957 871.402 682.289 871.902 670.639 863.652 C 661.966 857.558 656.186 848.159 654.661 837.669 C 651.168 813.309 667.165 795.367 690.875 792.391 z" fill="rgb(165,180,252)" transform="translate(0,0)"></path>
<metadata><recraft-signature>{"signed_by": "recraft", "signature_b64": "8q0O7r0/IzNGEDvS3YPg0eRG19wC5f4o2jN2EgT/T3rE4JwkIkIOFYSnCrY8SBZH0+3mr9CEwdAYthkeeK2ZCA==", "signing_algo": "Ed25519", "generation_timestamp": 1783906528, "identifier": "2d46a5c7-1584-4fc1-b72c-76c0e2d97236"}</recraft-signature></metadata></svg>