<svg xmlns="http://www.w3.org/2000/svg" height="1024" preserveAspectRatio="none" style="display: block;" version="1.1" viewBox="0 0 2048 2048" width="1024">
<path d="M 0 0 L 2048 0 L 2048 2048 L 0 2048 L 0 0 z" fill="rgb(13,14,16)" transform="translate(0,0)"></path>
<path d="M 1036.23 464.367 C 1076.37 460.014 1143.72 467.565 1183.02 476.398 C 1331.64 510.75 1460.48 602.828 1541.12 732.312 C 1618.33 853.58 1644.3 1000.52 1613.35 1140.91 C 1592.39 1236.66 1545.65 1324.85 1478.19 1395.95 C 1464.43 1410.36 1451.74 1424.6 1434.87 1435.2 C 1383.8 1462.28 1316.35 1453.38 1267.8 1424.15 C 1251.22 1414.16 1228.47 1380.93 1215.62 1364.35 L 1131.96 1255.29 C 1105.31 1221.79 1079.18 1187.87 1053.59 1153.55 C 1043.43 1140.19 1028.03 1122.36 1019.55 1108.6 C 1023.63 1102.1 1031.29 1093.2 1036.14 1086.83 C 1043.8 1076.77 1051.42 1066.52 1059.15 1056.53 C 1079.76 1032.12 1098.07 1001.93 1118.04 977.678 C 1145.09 944.82 1158.33 922.595 1170.19 880.855 C 1179.5 848.09 1184.93 820.566 1186.7 786.503 C 1192.89 667.196 1142.95 557.186 1049.61 482.651 C 1044.62 478.665 1030.32 469.366 1027.37 466.082 C 1030.31 464.383 1032.57 464.693 1036.23 464.367 z" fill="rgb(168,85,247)" transform="translate(0,0)"></path>
<path d="M 1309.99 881.408 C 1351.24 878.128 1393.92 899.163 1413.21 936.376 C 1449.39 1006.17 1430.63 1092.33 1402.4 1161.73 C 1399.68 1169.41 1396.3 1176.96 1393.54 1184.6 C 1372.45 1242.92 1321.36 1275.55 1258.38 1257.16 C 1226.01 1246.43 1201.81 1229.34 1177.89 1205.01 C 1150.27 1176.91 1135.93 1156.54 1131.35 1116.84 C 1124.43 1056.98 1164.09 1025.68 1194.76 981.193 C 1198.42 975.888 1200.6 965.923 1202.99 959.9 C 1216.78 912.717 1263.11 885.616 1309.99 881.408 z" fill="rgb(13,14,16)" transform="translate(0,0)"></path>
<path d="M 1388.54 651.288 C 1409.22 648.004 1430.07 656.084 1443.13 672.445 C 1456.2 688.806 1459.46 710.926 1451.69 730.366 C 1443.91 749.806 1426.29 763.568 1405.54 766.403 C 1373.95 770.721 1344.76 748.802 1340.1 717.256 C 1335.44 685.709 1357.04 656.289 1388.54 651.288 z" fill="rgb(13,14,16)" transform="translate(0,0)"></path>
<path d="M 787.581 470.423 C 799.669 469.074 815.31 470.063 827.642 470.554 C 968.696 476.173 1091.85 590.452 1108.2 730.465 C 1114.15 783.591 1106.12 856.266 1074.16 900.903 C 1040.72 947.61 1003.25 998.43 967.477 1043.59 C 961.779 1034.37 949.352 1019.12 942.205 1009.78 L 885.474 936.248 C 876.74 924.865 864.591 910.024 857.038 898.252 C 876.172 870.134 902.385 841.953 919.085 812.427 C 923.02 805.47 926.647 791.47 927.956 783.478 C 933.243 751.641 925.329 719.024 906.038 693.15 C 886.889 667.528 858.345 650.563 826.686 645.991 C 758.003 635.861 693.695 685.987 686.237 754.173 C 680.621 805.529 695.335 821.308 724.113 859.331 L 784.487 937.517 L 1040.43 1271.41 C 1068.91 1307.45 1097.04 1345.85 1125.46 1382.02 C 1139.62 1400.03 1155.01 1422.98 1169.92 1439.56 C 1213.75 1488.29 1279.05 1519.55 1343.33 1529.82 C 1288.05 1549.45 1231.33 1575.69 1172.43 1581.62 C 1111.41 1587.76 1048.81 1567.26 1006.45 1522.19 C 989.221 1503.87 977.317 1481.86 961.151 1462.59 C 930.974 1424.84 902.87 1385.15 873.888 1346.48 L 795.741 1243.67 L 628.266 1021.81 L 572.333 948.193 C 562.645 935.317 548.811 917.767 540.814 904.255 C 520.775 870.873 508.929 833.22 506.246 794.378 C 499.975 715.193 525.701 636.797 577.672 576.724 C 632.79 513.705 703.463 476.053 787.581 470.423 z" fill="rgb(168,85,247)" transform="translate(0,0)"></path>
<path d="M 637.256 1164.74 C 646.041 1172.95 674.354 1212.21 682.904 1223.56 C 707.722 1256.09 732.825 1288.41 758.211 1320.5 C 737.707 1345.98 719.062 1372.09 699.439 1398.04 C 677.321 1427.28 654.086 1456.47 632.024 1485.79 L 592.887 1537.47 C 576.304 1558.98 570.41 1572.23 541.869 1578.02 C 519.437 1578.15 501.593 1569.53 487.094 1552.3 C 467.106 1528.54 424.053 1505.93 419.786 1474.21 C 416.413 1449.13 437.71 1426.85 451.877 1408.48 L 497.056 1349.86 C 530.971 1304.15 565.288 1258.74 600.002 1213.63 C 612.415 1197.38 624.447 1180.64 637.256 1164.74 z" fill="rgb(168,85,247)" transform="translate(0,0)"></path>
<metadata><recraft-signature>{"signed_by": "recraft", "signature_b64": "dBdouWA+Oe36CU2E7lgVNP+y20M6XT2ad8Mt6cUj/gZv9Hz5HiIIHG2WDtVhQucMafBv0kZk6VjQbOLxG6oxCA==", "signing_algo": "Ed25519", "generation_timestamp": 1783906448, "identifier": "1dfabb48-d49b-4154-889d-c068999372ba"}</recraft-signature></metadata></svg>