<svg xmlns="http://www.w3.org/2000/svg" height="1024" preserveAspectRatio="none" style="display: block;" version="1.1" viewBox="0 0 2048 2048" width="1024">
<path d="M 0 0 L 2048 0 L 2048 2048 L 0 2048 L 0 0 z" fill="rgb(13,14,16)" transform="translate(0,0)"></path>
<path d="M 861.593 641.412 C 892.289 638.927 919.058 650.278 943.009 668.075 C 1015.9 722.242 970.104 801.387 999.5 871.083 C 1005.07 884.278 1013.65 894.566 1023.05 905.52 C 1091.44 835.969 1030.33 764.068 1080.54 693.247 C 1099.27 666.502 1127.9 648.349 1160.08 642.829 C 1261 626.048 1334.21 744.06 1272.58 826.596 C 1247.16 860.634 1219.2 870.289 1178.96 876.263 C 1132.47 886.09 1093.69 910.69 1073.48 955.033 C 1057.25 990.634 1059.89 1028.18 1059.95 1066.16 L 1060.04 1149.08 L 987.97 1149.49 L 988.035 1058.5 C 988.045 1038.86 988.429 1021.45 986.7 1002.32 C 981.516 944.988 940.574 894.675 884.288 880.677 C 850.02 872.154 826.345 873.518 795.613 848.842 C 771.561 829.577 756.212 801.494 752.984 770.847 C 749.597 739.418 759.015 707.951 779.112 683.551 C 800.355 658.131 828.897 644.506 861.593 641.412 z" fill="rgb(4,247,201)" transform="translate(0,0)"></path>
<path d="M 1365.57 828.307 C 1366.17 828.261 1366.78 828.216 1367.38 828.17 C 1377.32 827.464 1387.11 830.906 1394.42 837.679 C 1412.25 854.198 1407.95 878.302 1407.64 900.158 C 1407.36 919.778 1407.23 939.399 1407.24 959.021 L 1407.03 1041.05 C 1406.96 1066.9 1407.5 1089.55 1403.4 1115.12 C 1395.84 1162.24 1365.79 1191.29 1334.66 1224.53 C 1309.12 1251.81 1282.4 1279.53 1258.26 1308.16 C 1249.07 1319.07 1240.54 1330.79 1234.56 1343.84 C 1226.88 1360.83 1224.58 1379.19 1211.16 1393.23 C 1205.3 1399.65 1194.91 1404.49 1186.17 1405.83 C 1171.63 1408.07 1154.68 1407.27 1139.88 1407.34 L 1057.48 1407.75 C 1057.25 1376.78 1057.26 1345.81 1057.52 1314.85 C 1057.63 1287.48 1056.78 1261.2 1060.35 1234.1 C 1073.73 1166.88 1116.26 1134.64 1162.88 1089.45 C 1183.75 1069.22 1219.16 1025.59 1248.91 1053.46 C 1255.87 1059.97 1259.89 1069.02 1260.05 1078.55 C 1260.11 1085.33 1258.21 1091.98 1254.58 1097.7 C 1249.62 1105.6 1241.63 1111.81 1235.13 1118.6 C 1221.94 1132.24 1208.85 1145.27 1195.54 1158.84 C 1185.85 1168.86 1184.44 1180.11 1196.06 1189.25 C 1198.83 1192.07 1209.18 1194.64 1212.89 1192.3 C 1229.79 1181.63 1247.15 1159.56 1262.07 1145.97 C 1274.2 1134.91 1288.29 1120.56 1295.39 1107.38 C 1301.46 1095.92 1305.65 1083.56 1307.81 1070.77 C 1310.17 1056.5 1309.54 1030.62 1309.62 1015.54 C 1309.68 983.516 1309.92 951.491 1310.33 919.468 C 1310.57 906.75 1309.79 888.274 1312.84 876.48 C 1319.57 850.479 1339.31 831.721 1365.57 828.307 z" fill="rgb(4,247,201)" transform="translate(0,0)"></path>
<path d="M 670.569 828.178 C 705.298 824.651 733.038 852.365 736.24 885.627 C 737.411 897.782 737.04 909.881 737.197 922.083 C 737.557 946.399 737.78 970.718 737.864 995.036 C 738.066 1039.43 734.055 1090.9 765.214 1126.79 C 772.28 1134.93 824.286 1187.27 832.229 1192.14 C 837.536 1195.4 842.646 1195.72 848.665 1196.14 C 858.06 1189.62 864.735 1179.29 858.305 1168.05 C 838.903 1134.12 773.629 1108.34 793.306 1061.91 C 800.447 1045.06 823.049 1041.13 838.213 1049.52 C 853.072 1058.01 864.985 1072.75 877.9 1083.85 C 919.47 1124.1 965.683 1162.45 984.275 1219.26 C 993.066 1250.16 990.703 1289.98 990.469 1322.49 L 990.111 1407.15 L 910.983 1407.18 C 892.081 1407.23 867.493 1409.4 850.041 1402.56 C 821.752 1391.6 823.971 1366.41 814.272 1345.71 C 793.835 1302.1 747.234 1263.23 715.559 1227.86 C 688.488 1197.63 667.014 1180.93 652.132 1142.59 C 639.041 1108.86 640.126 1086.76 640.03 1052.32 L 639.936 984.829 L 639.993 910.751 C 640.061 878.019 632.94 841.389 670.569 828.178 z" fill="rgb(4,247,201)" transform="translate(0,0)"></path>
<metadata><recraft-signature>{"signed_by": "recraft", "signature_b64": "r+G6g/5CST8UaUgg6iKEEhhvtlkhlcPO7ztlGq5+9ZB1prX82newEInmL+VCwt2SeUnrpCTA5jjrEt5BrtouCA==", "signing_algo": "Ed25519", "generation_timestamp": 1783906612, "identifier": "9442d409-fc8a-47d7-8bde-1e660199a0bf"}</recraft-signature></metadata></svg>