<svg xmlns="http://www.w3.org/2000/svg" height="1024" preserveAspectRatio="none" style="display: block;" version="1.1" viewBox="0 0 2048 2048" width="1024">
<path d="M 0 0 L 2048 0 L 2048 2048 L 0 2048 L 0 0 z" fill="rgb(13,14,16)" transform="translate(0,0)"></path>
<path d="M 1001.03 1051.49 C 1031.24 1051.16 1068.57 1047.59 1094.29 1062.22 C 1149.11 1093.4 1132.64 1143.74 1141.27 1194.26 C 1144.91 1215.58 1170.6 1236.13 1192.22 1238.6 C 1221.09 1241.9 1245.89 1244.74 1272.8 1259.66 C 1310.05 1280.31 1337.5 1314.98 1349.06 1355.97 C 1372.96 1440.62 1323.21 1533.58 1237.56 1557.35 C 1185.12 1571.9 1120.59 1557 1082.88 1517.03 C 1068.05 1501.32 1063.1 1486.13 1043.18 1474.55 C 1025.82 1467.94 1009.71 1469.55 995.862 1482.87 C 987.28 1491.12 982.259 1503.21 974.29 1511.74 C 913.828 1576.47 811.159 1582.36 745.604 1521.68 C 713.672 1491.87 695.102 1450.44 694.089 1406.76 C 692.018 1335.9 732.481 1271.85 800.678 1248.53 C 834.998 1236.79 874.303 1246.84 897.138 1215.69 C 928.527 1172.86 891.792 1120.89 935.998 1076.49 C 955.783 1056.62 973.992 1052.07 1001.03 1051.49 z" fill="rgb(59,130,246)" transform="translate(0,0)"></path>
<path d="M 1099.46 1306.48 C 1124.41 1305.95 1149.6 1306.52 1174.57 1306.14 C 1185.71 1305.98 1197.84 1306.03 1208.81 1307.74 C 1218.27 1309.22 1227.43 1312.18 1235.96 1316.51 C 1283.96 1340.63 1300.31 1397.59 1275.74 1444.66 C 1264.73 1465.85 1245.67 1481.74 1222.85 1488.75 C 1197.5 1496.64 1174.62 1492.62 1151.47 1480.58 C 1123.8 1465.03 1122.24 1444.75 1098.41 1424.37 C 1068.42 1398.72 1031.08 1395.58 993.438 1402.96 C 985.684 1404.48 975.864 1411.02 966.773 1411.77 C 964.003 1410.55 964.873 1411.57 963.755 1408.96 C 972.696 1396.2 984.715 1384.33 995.033 1372.59 C 1029.55 1333.29 1043.71 1308.26 1099.46 1306.48 z" fill="rgb(13,14,16)" transform="translate(0,0)"></path>
<path d="M 849.32 485.427 C 897.636 483.684 949.627 508.448 978.185 547.559 C 991.43 567.883 1000.31 594.801 1030.62 590.875 C 1053.15 586.994 1057.93 565.065 1069.05 549.692 C 1119.48 479.94 1219.45 465.077 1288.46 515.848 C 1399.43 596.774 1365.81 776.383 1229.97 805.927 C 1194.79 813.579 1173.45 804.714 1148.83 839.232 C 1125.12 878.936 1152.8 928.561 1116.72 967.732 C 1087.23 999.756 1059.86 996.988 1019.56 997.077 C 987.046 997.148 965.817 997.938 939.91 975.468 C 907.956 947.754 911.885 911.241 911.435 872.936 C 910.691 843.905 888.034 816.443 859.206 811.192 C 844.044 808.43 829.782 808.386 814.053 804.444 C 789.804 798.46 767.34 786.759 748.538 770.32 C 666.973 698.918 678.637 563.513 771.96 507.787 C 797.03 492.817 820.354 487.066 849.32 485.427 z" fill="rgb(59,130,246)" transform="translate(0,0)"></path>
<metadata><recraft-signature>{"signed_by": "recraft", "signature_b64": "WRYy4uR5fFg08Vz7kb2Tw5l8cV6JmjUEBvoZglHCGQIlOZEamsqV/ar5htOm1OAPyUqTKVQ6cmqZQgPIjO0jCQ==", "signing_algo": "Ed25519", "generation_timestamp": 1783906451, "identifier": "d47490d2-99be-4bd3-9a90-e425ca07a99e"}</recraft-signature></metadata></svg>