<svg xmlns="http://www.w3.org/2000/svg" height="1024" preserveAspectRatio="none" style="display: block;" version="1.1" viewBox="0 0 2048 2048" width="1024">
<path d="M 0 0 L 2048 0 L 2048 2048 L 0 2048 L 0 0 z" fill="rgb(13,14,16)" transform="translate(0,0)"></path>
<path d="M 1000.7 618.473 C 1045.16 617.691 1093.03 628.5 1133.43 647.174 C 1153.85 656.614 1175.14 667.896 1193.22 681.283 C 1253.32 725.781 1298.41 797.778 1310.04 871.74 C 1312.13 884.997 1313.71 898.594 1314.21 912.01 C 1314.89 929.941 1313.96 947.74 1318.44 965.307 C 1328.04 1002.87 1351.33 1035.26 1364.4 1071.39 C 1369.21 1084.68 1370.78 1098.06 1368.36 1112.05 C 1359.94 1160.65 1313.56 1163.57 1303.25 1187.53 C 1298.87 1197.71 1299.5 1210.08 1298.81 1220.99 C 1297.67 1238.9 1294.92 1256.35 1287.12 1272.69 C 1282.58 1282.21 1275.93 1290.4 1268.73 1298.05 C 1246.67 1321.54 1220.81 1332.82 1188.59 1334.39 C 1173.42 1335.13 1156.5 1332.44 1142.01 1337.84 C 1115.35 1347.75 1120.16 1379.12 1110.47 1400.3 C 1105.65 1410.86 1097.19 1419.37 1086.17 1423.31 C 1076.7 1426.69 1065.15 1426.73 1056.09 1422.07 C 1044.18 1415.95 1039.47 1404.59 1035.54 1392.57 C 1027.43 1367.74 1034.6 1340.05 1046.15 1317.41 C 1065.84 1278.83 1105.39 1256.54 1148.16 1254.23 C 1162.27 1253.47 1177.49 1255.77 1191.04 1251.06 C 1234.57 1235.93 1204.26 1172.38 1222.34 1141.7 C 1234.38 1121.27 1266.86 1113.62 1276.46 1093.26 C 1274.55 1070.44 1243.54 1024.01 1237.42 996.414 C 1228.61 956.695 1232.8 924.46 1227.03 885.152 C 1222.61 875.111 1221.24 861.936 1217.66 852.049 C 1191.91 780.954 1131.11 730.363 1058.81 711.801 C 1053.93 710.546 1046.43 709.887 1041.38 708.863 C 1020.29 704.584 995.243 706.521 973.659 707.769 C 913.675 716.453 860.591 740.781 821.699 788.418 C 766.239 856.35 749.578 952.739 785.86 1033.48 C 799.02 1060.05 822.175 1084.11 837.768 1107.97 C 861.199 1143.81 879.681 1188.51 884.31 1230.97 L 884.976 1229.65 C 883.735 1221.73 885.667 1215.2 885.501 1206.44 C 885.245 1193.47 883.977 1177.66 882.518 1164.99 C 878.673 1131.59 861.085 1101.31 838.617 1076.97 C 835.055 1073.11 827.536 1059.2 824.741 1054.08 C 802.679 1013.49 792.706 967.431 796.003 921.349 C 796.419 914.576 798.176 896.47 800.112 889.792 C 800.847 850.684 848.161 786.255 879.415 766.108 L 878.127 766.49 C 891.864 756.215 892.814 751.756 909.602 748.55 C 918.174 733.525 975.797 722.14 993.121 724.292 C 1000.19 725.171 1008.43 725.268 1015.25 724.69 C 1018.63 724.403 1021.09 722.888 1024.41 724.528 C 1037.55 728.277 1054.01 729.574 1066.93 733.465 C 1077.95 736.782 1098.17 744.402 1107.4 750.565 C 1125.43 762.602 1141.18 781.579 1156.44 797.028 C 1160.11 800.743 1162.77 810.102 1165.39 814.969 C 1175.18 834.03 1181.58 850.021 1184.26 871.523 C 1184.54 873.783 1182.85 879.276 1182.53 883.12 L 1184.23 881.267 C 1184.71 885.9 1184.43 892.611 1184.37 897.426 L 1183.31 896.694 C 1180.01 899.893 1184.88 896.97 1183.21 901.789 C 1182.07 899.808 1182.57 899.87 1181.02 898.952 C 1179.81 903.487 1183.21 905.132 1182.23 908.172 C 1180.51 913.481 1175.32 916.757 1174.71 923.008 C 1176.06 925.531 1175.88 924.872 1176.58 927.588 L 1174.19 926.664 C 1172.12 927.696 1171.66 928.332 1170.97 930.666 C 1163.35 956.696 1145.81 979.708 1122.05 993.278 C 1099.93 1005.54 1079.86 1008.2 1055.16 1007.66 C 1041.81 1007.37 1034.11 1007.24 1020.68 1003.28 C 1011.21 1000.49 998.957 993.747 990.969 988.08 C 969.147 972.6 946.953 949.073 942.74 921.6 C 939.413 896.44 958.897 870.362 984.908 868.777 C 1012.79 867.077 1022.36 890.409 1039.31 906.441 C 1049.99 916.544 1076.34 915.471 1084.98 902.352 C 1091.67 892.527 1089.73 885.388 1089.03 874.853 C 1087.28 848.344 1058.5 833.653 1038.32 821.702 C 1038.32 821.702 1033.03 822.514 1032.54 822.589 C 1027.08 820.089 1021.91 818.979 1015.75 818.377 C 978.989 814.79 944.955 829.55 916.938 852.396 C 915.501 855.939 913.946 862.117 911.79 865.027 C 882.947 903.971 886.059 956.728 902.819 1000.03 C 908.244 1014.05 916.173 1026.09 925.702 1037.92 C 925.704 1037.92 929.861 1039.55 930.264 1039.71 C 931.194 1041.91 931.136 1041.06 931.008 1043.3 C 930.791 1047.06 953.74 1085.4 957.831 1090.88 C 967.672 1104.06 968.967 1121.42 973.438 1136.82 C 983.516 1171.53 978.7 1217.23 970.259 1251.84 C 969.199 1256.19 956.935 1289.79 955.251 1292.07 C 954.782 1292.71 953.901 1292.89 953.226 1293.3 C 952.484 1291.17 953.133 1291.7 951.716 1290.77 C 950.427 1293.32 950.183 1293.61 949.523 1296.35 L 951.459 1297.17 C 950.013 1298.17 948.605 1299.22 947.239 1300.33 C 938.9 1307.18 943.814 1312.13 941.066 1314.62 C 935.914 1319.27 935.936 1323.9 932.441 1328.21 C 921.941 1341.17 909.607 1352.61 898.302 1364.74 L 868.385 1396.63 C 861.064 1404.57 850.915 1416.63 842.605 1422.88 C 836.223 1427.77 828.563 1430.72 820.546 1431.37 C 816.967 1431.67 802.802 1431.92 800.254 1430.88 C 771.439 1419.17 761.679 1389.12 772.981 1362.04 C 781.459 1341.72 789.107 1323.18 792.087 1303.46 C 799.26 1256.02 790.952 1204.87 765.409 1164.07 C 756.49 1149.9 744.99 1137.32 735.138 1123.83 C 698.246 1075.57 679.059 1020.67 675.248 959.875 C 669.593 875.389 697.718 792.116 753.44 728.36 C 765.305 714.968 781.774 697.432 795.205 686.123 C 849.43 640.466 931.25 622.627 1000.7 618.473 z" fill="rgb(68,57,81)" transform="translate(0,0)"></path>
<path d="M 843.334 1401.99 C 841.031 1405.32 837.508 1409.15 834.214 1411.5 C 827.062 1416.68 818.064 1418.62 809.415 1416.84 C 791.013 1413.1 777.828 1395.18 783.729 1376.58 C 786.472 1367.94 791.377 1360.07 794.54 1351.7 C 816.335 1293.71 814.666 1229.53 788.186 1173.44 C 773.085 1141.45 749.058 1120.32 731.052 1090.61 C 691.823 1025.87 680.358 941.711 698.266 868.365 C 718.625 786.816 770.283 716.567 842.055 672.825 C 911.842 630.819 1000.36 619.041 1079.29 638.855 C 1156.96 657.555 1223.85 706.73 1264.86 775.297 C 1289.63 817.011 1303.67 864.218 1305.72 912.69 C 1306.56 934.548 1304.83 957.474 1311.42 978.701 C 1319.65 1005.18 1335.86 1031.17 1347.16 1056.69 C 1351.99 1067.6 1357.18 1076.53 1359.69 1088.58 C 1361.54 1097.29 1361.3 1106.32 1358.99 1114.92 C 1351.39 1143.84 1316.07 1165.2 1291.04 1179.74 C 1293.02 1220.67 1292.2 1257.64 1264.22 1290.52 C 1246.01 1312.1 1219.52 1324.99 1191.29 1325.98 C 1178.48 1326.54 1165.13 1325.46 1152.39 1326.58 L 1150.98 1326.71 C 1154.67 1326.94 1172.98 1328.02 1174.83 1330.62 C 1174.76 1331.18 1174.87 1330.92 1174.47 1331.37 C 1171.37 1332.2 1167.58 1330.1 1161.5 1331.07 C 1155.68 1331.99 1134.27 1332.05 1131.87 1339.35 C 1130.61 1341.34 1131.19 1340.53 1129.64 1341.74 C 1122.06 1347.64 1117.35 1355.4 1113 1363.79 C 1113.03 1359.83 1113 1355.86 1112.9 1351.9 C 1101.65 1370.83 1111.41 1394.31 1095.18 1408.17 C 1065.85 1433.21 1040.89 1404.75 1041.66 1373.37 C 1043.29 1307.02 1094.41 1263.21 1158.93 1262.29 C 1178.68 1262.01 1199.23 1264.4 1214.46 1249.11 C 1230.08 1233.84 1227.07 1210.62 1227.19 1190.7 C 1227.28 1176 1227.03 1161.13 1226.92 1146.41 C 1249.48 1130.22 1272.54 1114.76 1296.08 1100.05 C 1280.19 1063.55 1257.45 1027.86 1247 989.008 C 1240.53 965.429 1241.02 940.333 1240.51 916.125 C 1238.4 814.343 1165.28 729.52 1068.5 702.915 C 1043.6 696.071 1019.48 694.355 993.44 694.5 C 984.308 694.909 974.992 695.088 966.049 696.992 C 912.047 701.215 848.707 740.711 813.748 781.586 C 771.599 831.227 750.945 895.604 756.346 960.501 C 759.157 995.054 774.08 1046.16 796.363 1072.19 C 832.836 1114.8 858.805 1156.66 868.818 1213.07 C 871.521 1228.3 875.461 1254.52 874.312 1270.52 C 872.927 1303.48 870.744 1332.81 859.297 1364.37 C 855.637 1374.45 845.394 1393.27 843.334 1401.99 z" fill="rgb(216,180,254)" transform="translate(0,0)"></path>
<path d="M 1127.77 1335.6 C 1135.89 1330.03 1141.34 1327.7 1150.98 1326.71 C 1154.67 1326.94 1172.98 1328.02 1174.83 1330.62 C 1174.76 1331.18 1174.87 1330.92 1174.47 1331.37 C 1171.37 1332.2 1167.58 1330.1 1161.5 1331.07 C 1155.68 1331.99 1134.27 1332.05 1131.87 1339.35 C 1130.61 1341.34 1131.19 1340.53 1129.64 1341.74 C 1122.06 1347.64 1117.35 1355.4 1113 1363.79 C 1113.03 1359.83 1113 1355.86 1112.9 1351.9 C 1117.64 1344.6 1120.44 1340.93 1127.77 1335.6 z" fill="rgb(62,51,80)" transform="translate(0,0)"></path>
<path d="M 962.785 740.979 C 970.876 731.799 980.018 735.898 990.035 731.201 C 991.191 730.659 1021.06 731.801 1021.76 732.24 C 1022.43 734.558 1030.89 735.151 1033.6 735.675 C 1042.28 737.359 1038.71 737.796 1044.14 742.134 C 1051.71 744.282 1059.24 746.544 1066.74 748.92 C 1068.01 748.943 1078.36 750.335 1078.6 750.196 C 1079.18 749.861 1079.82 749.882 1080.41 750.169 C 1080.82 750.365 1081.21 750.602 1081.61 750.802 C 1082.97 751.474 1083.91 751.755 1085.35 752.257 C 1086.27 752.579 1088.91 753.444 1089.38 754.485 C 1089.43 754.59 1089.45 754.715 1089.4 754.826 C 1089.29 755.133 1088.94 755.276 1088.66 755.36 C 1086.83 755.9 1084.31 755.49 1082.41 755.485 C 1119 774.242 1127.51 784.117 1151.34 814.91 L 1152.7 815.801 C 1156.42 818.209 1165.46 826.55 1164.82 830.985 C 1163.38 832.744 1159.65 829.108 1158.5 828.237 C 1171.8 859.062 1173.4 884.994 1165.11 917.655 C 1164.87 930.007 1160.2 933.51 1155.71 943.772 C 1149.81 957.28 1142.37 969.836 1129.37 978.411 L 1126.36 980.417 C 1118.92 985.327 1113.28 987.857 1105.39 991.819 C 1099.25 994.9 1079.76 1001.95 1072.99 999.768 L 1072.77 999.445 C 1073.21 998.204 1076.87 998.431 1079.02 998.101 C 1087.41 996.817 1087.02 994.293 1091.93 990.768 C 1060.69 998.357 1034.02 995.791 1005.23 980.35 C 983.393 968.184 964.427 947.789 957.329 923.421 C 952.41 906.817 958.821 885.096 977.46 881.244 C 987.783 879.11 1002.98 880.746 1009.82 889.092 C 1020.31 901.885 1022.34 912.397 1037.37 921.99 L 1038.52 922.712 C 1038.8 921.696 1039.29 919.252 1040.08 918.422 C 1041.28 918.11 1050.95 922.878 1052.02 923.037 C 1059.8 924.203 1071.26 924.982 1079.31 925.025 C 1130.1 897.549 1099.37 835.586 1058.81 816.285 C 1023.93 799.685 997.442 798.295 960.506 809.418 L 960.373 810.435 C 959.646 816.322 960.802 816.417 953.712 818.591 C 950.358 819.619 943.53 819.001 939.76 818.967 C 933.345 823.022 929.045 825.716 923.203 830.492 C 923.021 833.837 923.953 840.155 918.401 840.948 C 916.33 841.244 916.362 838.148 916.256 836.829 C 890 861.149 876.53 895.327 875.197 930.772 C 874.933 936.864 875.043 942.965 875.529 949.043 C 875.932 952.169 876.076 955.314 876.512 958.437 C 885.657 1018.1 908.166 1028.72 934.953 1075.33 C 979.474 1152.8 971.192 1250.57 918.102 1322.9 C 915.35 1326.67 912.532 1330.39 909.647 1334.06 C 901.445 1343.24 880.337 1363.46 874.472 1370.96 C 863.577 1381.05 853.873 1391.62 843.334 1401.99 C 845.394 1393.27 855.637 1374.45 859.297 1364.37 C 870.744 1332.81 872.927 1303.48 874.312 1270.52 L 874.993 1270.51 C 877.509 1268.83 878.964 1266.39 880.363 1263.75 C 907.055 1215.37 904.363 1140.57 871.283 1095.67 C 845.661 1060.89 830.572 1042.78 818.803 998.633 C 799.559 926.437 810.638 854.058 862.924 798.136 C 891.999 767.04 922.155 751.532 962.785 740.979 z" fill="rgb(192,132,252)" transform="translate(0,0)"></path>
<path d="M 1091.93 990.768 C 1092.38 990.572 1092.83 990.376 1093.28 990.18 C 1129.04 978.107 1152.25 954.148 1165.11 917.655 C 1164.87 930.007 1160.2 933.51 1155.71 943.772 C 1149.81 957.28 1142.37 969.836 1129.37 978.411 L 1126.36 980.417 C 1118.92 985.327 1113.28 987.857 1105.39 991.819 C 1099.25 994.9 1079.76 1001.95 1072.99 999.768 L 1072.77 999.445 C 1073.21 998.204 1076.87 998.431 1079.02 998.101 C 1087.41 996.817 1087.02 994.293 1091.93 990.768 z" fill="rgb(62,51,80)" transform="translate(0,0)"></path>
<path d="M 962.785 740.979 C 970.876 731.799 980.018 735.898 990.035 731.201 C 991.191 730.659 1021.06 731.801 1021.76 732.24 C 1022.43 734.558 1030.89 735.151 1033.6 735.675 C 1042.28 737.359 1038.71 737.796 1044.14 742.134 C 1018.3 736.236 988.736 735.188 962.785 740.979 z" fill="rgb(62,51,80)" transform="translate(0,0)"></path>
<path d="M 1038.52 922.712 C 1038.8 921.696 1039.29 919.252 1040.08 918.422 C 1041.28 918.11 1050.95 922.878 1052.02 923.037 C 1059.8 924.203 1071.26 924.982 1079.31 925.025 L 1078.22 925.427 C 1064.1 930.803 1051.91 929.907 1038.52 922.712 z" fill="rgb(62,51,80)" transform="translate(0,0)"></path>
<path d="M 939.76 818.967 C 946.815 814.733 953.172 812.649 960.506 809.418 L 960.373 810.435 C 959.646 816.322 960.802 816.417 953.712 818.591 C 950.358 819.619 943.53 819.001 939.76 818.967 z" fill="rgb(62,51,80)" transform="translate(0,0)"></path>
<path d="M 1151.34 814.91 L 1152.7 815.801 C 1156.42 818.209 1165.46 826.55 1164.82 830.985 C 1163.38 832.744 1159.65 829.108 1158.5 828.237 C 1156.34 823.399 1153.81 819.478 1151.34 814.91 z" fill="rgb(62,51,80)" transform="translate(0,0)"></path>
<path d="M 1066.74 748.92 C 1068.01 748.943 1078.36 750.335 1078.6 750.196 C 1079.18 749.861 1079.82 749.882 1080.41 750.169 C 1080.82 750.365 1081.21 750.602 1081.61 750.802 C 1082.97 751.474 1083.91 751.755 1085.35 752.257 C 1086.27 752.579 1088.91 753.444 1089.38 754.485 C 1089.43 754.59 1089.45 754.715 1089.4 754.826 C 1089.29 755.133 1088.94 755.276 1088.66 755.36 C 1086.83 755.9 1084.31 755.49 1082.41 755.485 C 1077.71 753.203 1071.65 750.717 1066.74 748.92 z" fill="rgb(62,51,80)" transform="translate(0,0)"></path>
<path d="M 923.203 830.492 C 923.021 833.837 923.953 840.155 918.401 840.948 C 916.33 841.244 916.362 838.148 916.256 836.829 C 918.542 834.684 920.858 832.572 923.203 830.492 z" fill="rgb(62,51,80)" transform="translate(0,0)"></path>
<path d="M 909.647 1334.06 C 911.248 1337.23 911.083 1337.04 910.956 1340.63 C 905.855 1351.89 877.107 1375.65 867.603 1386.22 C 860.756 1393.84 843.489 1416.08 834.789 1419.81 C 826.768 1423.26 807.096 1425.38 799.805 1419.65 C 795.487 1416.78 784.689 1410 783.994 1405.18 C 786.795 1406.07 789.929 1410.26 792.608 1412.66 C 805.013 1423.75 820.36 1423.63 834.642 1417.11 C 846.298 1411.79 868.371 1381.97 874.472 1370.96 C 880.337 1363.46 901.445 1343.24 909.647 1334.06 z" fill="rgb(62,51,80)" transform="translate(0,0)"></path>
<path d="M 875.529 949.043 C 879.872 941.825 875.669 933.419 878.284 929.951 C 878.382 929.948 878.587 929.912 878.596 930.072 C 879.055 938.714 880.531 950.598 876.512 958.437 C 876.076 955.314 875.932 952.169 875.529 949.043 z" fill="rgb(62,51,80)" transform="translate(0,0)"></path>
<metadata><recraft-signature>{"signed_by": "recraft", "signature_b64": "GzG94dC3pWqGpYxVa17Uut5Xoh1ByXWhj5Ip8t4Z1hqlF5MIf9wDOU+4r919o5TuIGmfOq3kIIdgU3fxawLBAg==", "signing_algo": "Ed25519", "generation_timestamp": 1783906557, "identifier": "f356303b-3fec-46f5-9287-19a1b223eb3a"}</recraft-signature></metadata></svg>