<svg xmlns="http://www.w3.org/2000/svg" height="1024" preserveAspectRatio="none" style="display: block;" version="1.1" viewBox="0 0 2048 2048" width="1024">
<path d="M 0 0 L 2048 0 L 2048 2048 L 0 2048 L 0 0 z" fill="rgb(13,14,16)" transform="translate(0,0)"></path>
<path d="M 1134.21 1293.11 C 1128 1276.21 1086.65 1167.19 1087.91 1159.17 C 1089.08 1151.78 1097.64 1147.82 1103.4 1144.53 C 1118.26 1136.05 1127.84 1124.26 1137.99 1110.69 C 1141.64 1105.82 1145.51 1099.66 1150.49 1096.09 C 1153.82 1093.7 1159.6 1094.25 1163.51 1094.52 C 1178.44 1095.57 1194.03 1099.32 1208.85 1101.69 L 1304.3 1116.72 C 1329 1121.5 1354 1124.6 1378.75 1128.97 C 1401.01 1132.9 1429.74 1133.35 1443.87 1153.67 C 1467.29 1187.37 1448 1216.97 1429.91 1246.97 C 1388.98 1315.63 1332.85 1373.99 1265.85 1417.56 C 1248.26 1428.77 1232.03 1436.41 1210.48 1431.59 C 1196.93 1428.7 1185.22 1420.28 1178.16 1408.37 C 1170.99 1396.52 1166.34 1380.59 1161.31 1367.62 C 1151.9 1343.37 1143.72 1317.25 1134.21 1293.11 z" fill="rgb(217,70,239)" transform="translate(0,0)"></path>
<path d="M 1134.21 1293.11 C 1128 1276.21 1086.65 1167.19 1087.91 1159.17 C 1089.08 1151.78 1097.64 1147.82 1103.4 1144.53 C 1118.26 1136.05 1127.84 1124.26 1137.99 1110.69 C 1141.64 1105.82 1145.51 1099.66 1150.49 1096.09 C 1153.82 1093.7 1159.6 1094.25 1163.51 1094.52 C 1178.44 1095.57 1194.03 1099.32 1208.85 1101.69 L 1304.3 1116.72 C 1280.19 1182.68 1210.57 1258.51 1146.92 1287.81 C 1142.74 1289.71 1138.5 1291.48 1134.21 1293.11 z" fill="rgb(150,36,228)" transform="translate(0,0)"></path>
<path d="M 744.893 1116.76 C 774.176 1112.6 803.416 1108.14 832.607 1103.37 C 849.587 1100.57 867.078 1096.45 884.196 1094.98 C 888.187 1094.64 894.869 1094.01 898.313 1096.29 C 905.5 1101.05 911.096 1112.49 916.315 1119.31 C 924.231 1129.65 932.786 1137.03 943.812 1143.81 C 948.865 1146.92 959.293 1152.05 960.624 1158.24 C 962.834 1168.5 920.539 1276.2 914.346 1293.04 C 911.521 1299.19 909.669 1307.32 906.608 1313.39 C 888.369 1349.55 883.57 1417.89 839.731 1430.81 C 820.404 1436.5 799.285 1428.05 784.045 1418.32 C 716.948 1375.49 661.221 1317.37 620.148 1249.27 C 611.689 1235.29 598.462 1213.22 595.096 1197.85 C 592.058 1183.33 595.107 1168.19 603.533 1155.97 C 619.123 1133.08 647.472 1133.65 672.34 1128.96 C 696.372 1124.42 720.842 1121.49 744.893 1116.76 z" fill="rgb(217,70,239)" transform="translate(0,0)"></path>
<path d="M 744.893 1116.76 C 774.176 1112.6 803.416 1108.14 832.607 1103.37 C 849.587 1100.57 867.078 1096.45 884.196 1094.98 C 888.187 1094.64 894.869 1094.01 898.313 1096.29 C 905.5 1101.05 911.096 1112.49 916.315 1119.31 C 924.231 1129.65 932.786 1137.03 943.812 1143.81 C 948.865 1146.92 959.293 1152.05 960.624 1158.24 C 962.834 1168.5 920.539 1276.2 914.346 1293.04 C 911.568 1292.16 908.846 1291.11 906.197 1289.89 C 839.144 1259.11 770.563 1185.83 744.893 1116.76 z" fill="rgb(150,36,228)" transform="translate(0,0)"></path>
<path d="M 1134.61 753.979 C 1144.87 727.675 1153.58 700.763 1163.78 674.45 C 1172.29 652.521 1178.18 629.481 1201.99 619.048 C 1232.38 605.738 1261.93 626.661 1285.68 643.641 C 1344.26 686.066 1393.55 740.013 1430.53 802.173 C 1445.64 827.337 1463.84 852.196 1450.05 882.517 C 1436.28 912.799 1410.47 912.462 1382.12 917.115 C 1357.04 921.229 1330.59 923.846 1305.86 929.776 C 1274.86 935.1 1243.83 940.212 1212.77 945.111 C 1197.29 947.622 1166.89 953.463 1152.08 953.008 C 1140.06 943.589 1131.87 926.351 1118.94 915.376 C 1112.22 909.676 1089.52 896.225 1088.69 891.806 C 1085.96 877.446 1100.87 844.827 1105.93 831.36 L 1134.61 753.979 z" fill="rgb(217,70,239)" transform="translate(0,0)"></path>
<path d="M 1134.61 753.979 C 1203.07 787.141 1242.74 827.422 1284.02 890.4 C 1290.98 901.015 1300.58 922.321 1305.86 929.776 C 1274.86 935.1 1243.83 940.212 1212.77 945.111 C 1197.29 947.622 1166.89 953.463 1152.08 953.008 C 1140.06 943.589 1131.87 926.351 1118.94 915.376 C 1112.22 909.676 1089.52 896.225 1088.69 891.806 C 1085.96 877.446 1100.87 844.827 1105.93 831.36 L 1134.61 753.979 z" fill="rgb(150,36,228)" transform="translate(0,0)"></path>
<path d="M 743.282 929.627 C 717.459 924.474 690.544 921.485 664.503 916.856 C 636.953 911.958 612.839 912.25 599.038 883.167 C 584.029 851.538 604.269 824.736 619.927 798.463 C 654.519 741.65 700.006 691.111 753.431 651.445 C 777.8 633.422 812.348 605.011 844.485 618.329 C 853.996 622.362 862.164 629.017 868.033 637.519 C 876.86 650.239 886.369 680.763 891.961 696.497 C 898.759 715.622 905.008 733.483 912.616 752.553 L 943.453 835.803 C 949.142 851.217 956.778 867.735 960.18 883.778 C 960.754 886.486 960.645 888.968 959.46 891.5 C 954.883 901.284 940.369 905.738 932.325 912.629 C 924.964 918.934 918.596 926.493 912.756 934.189 C 908.444 939.871 902.853 949.567 895.873 951.958 C 883.822 956.085 763.705 932.843 743.282 929.627 z" fill="rgb(217,70,239)" transform="translate(0,0)"></path>
<path d="M 912.616 752.553 L 943.453 835.803 C 949.142 851.217 956.778 867.735 960.18 883.778 C 960.754 886.486 960.645 888.968 959.46 891.5 C 954.883 901.284 940.369 905.738 932.325 912.629 C 924.964 918.934 918.596 926.493 912.756 934.189 C 908.444 939.871 902.853 949.567 895.873 951.958 C 883.822 956.085 763.705 932.843 743.282 929.627 C 745.294 928.029 757.988 903.493 760.411 899.062 C 797.198 831.786 848.104 791.344 912.616 752.553 z" fill="rgb(150,36,228)" transform="translate(0,0)"></path>
<path d="M 1017 940.017 C 1063.61 936.031 1104.62 970.573 1108.63 1017.18 C 1112.63 1063.79 1078.1 1104.82 1031.5 1108.84 C 984.869 1112.86 943.813 1078.31 939.808 1031.68 C 935.804 985.048 970.368 944.004 1017 940.017 z" fill="rgb(217,70,239)" transform="translate(0,0)"></path>
<metadata><recraft-signature>{"signed_by": "recraft", "signature_b64": "VND279hNI+2RW2C/E+YhpQKPVdOaHaatNWuYTDPg3+HerxIYXQj1lQf16j5uGuE3zAPdHixRb1uE7SQbqvOODg==", "signing_algo": "Ed25519", "generation_timestamp": 1783906622, "identifier": "fbe8ae34-e6bc-4578-aaa8-d60f3a75a22b"}</recraft-signature></metadata></svg>