<svg xmlns="http://www.w3.org/2000/svg" height="1024" preserveAspectRatio="none" style="display: block;" version="1.1" viewBox="0 0 2048 2048" width="1024">
<path d="M 0 0 L 2048 0 L 2048 2048 L 0 2048 L 0 0 z" fill="rgb(13,14,16)" transform="translate(0,0)"></path>
<path d="M 960.32 490.414 C 1042.17 487.512 1111.14 543.902 1126.06 623.993 C 1133.31 662.924 1121.31 698.935 1145.84 733.93 C 1160.16 755.506 1183.83 768.452 1206.5 780.561 C 1269 813.947 1307.02 866.241 1301.89 940.344 C 1299.05 980.211 1280.51 1017.32 1250.34 1043.54 C 1190.38 1095.62 1113.8 1090.13 1056.98 1042.9 C 1035.55 1025.08 1001.58 1017.21 973.756 1015.36 C 946.185 1015.55 918.445 1021.5 894.514 1034.97 C 858.768 1055.09 835.31 1076.07 792.221 1079.46 C 752.237 1082.61 716.422 1071.61 685.788 1045.23 C 655.09 1018.79 634.294 982.626 631.057 941.951 C 625.981 878.161 654.055 822.93 708.744 789.606 C 738.543 771.449 768.008 762.677 788.548 733.093 C 810.029 702.153 803.511 678.8 805.44 644.52 C 807.235 608.644 820.955 574.392 844.425 547.198 C 875.712 511.187 913.225 493.679 960.32 490.414 z" fill="rgb(34,211,238)" transform="translate(0,0)"></path>
<path d="M 966.577 573.407 C 967.076 573.403 967.575 573.4 968.074 573.396 C 1006.11 573.327 1039.84 601.048 1045.01 638.874 C 1048.17 662.061 1044.19 688.284 1048.88 713.116 C 1054.19 741.18 1059.65 756.585 1075.8 780.033 C 1099.23 814.075 1124.74 829.946 1159.87 849.081 C 1172.35 855.877 1189.02 866.543 1198.94 876.677 C 1212.36 890.608 1219.7 909.302 1219.34 928.646 C 1219.06 947.729 1210.77 967.704 1196.95 980.939 C 1189.25 988.393 1179.53 993.421 1169 995.402 C 1128.11 1003.52 1108.34 970.665 1074.01 955.272 C 1036.96 938.658 1010.11 931.482 970.254 930.499 C 920.417 930.647 880.658 941.011 838.29 968.032 C 819.54 980.283 807.448 993.27 784.21 995.895 C 747.133 1000.67 718.206 970.299 715.344 935.308 C 710.248 872.991 760.187 858.906 802.999 833.089 C 829.605 817.045 861.877 778.907 874.718 751.207 C 882.767 733.843 887.239 712.225 887.996 693.075 C 890.002 659.48 882.195 630.064 905.846 602.585 C 923.854 581.662 939.907 575.779 966.577 573.407 z" fill="rgb(13,14,16)" transform="translate(0,0)"></path>
<path d="M 622.893 1036.35 C 627.291 1039.09 636.378 1052.26 641.106 1056.96 C 666.005 1081.69 687.836 1095.67 719.715 1109.23 C 740.665 1154.02 769.394 1177.23 810.224 1202.17 C 836.152 1218.01 857.279 1242.68 870.794 1269.58 C 887.627 1303.09 889.263 1336.4 887.996 1373.06 C 888.009 1388.4 887.476 1405.9 893.56 1420.35 C 910.439 1460.45 955.947 1480.14 996.237 1464.78 C 1008.18 1460.33 1018.79 1452.91 1027.09 1443.24 C 1055.51 1409.79 1042.56 1365.85 1047.54 1323.34 C 1050.76 1296.65 1060.5 1271.16 1075.9 1249.11 C 1088.45 1231.38 1105.99 1216.92 1124.36 1205.54 C 1171.44 1176.38 1192.4 1160.16 1214.92 1109.02 C 1262.68 1088.2 1275.33 1076.56 1308.04 1037.69 C 1307.11 1065.71 1304.59 1085.56 1297.69 1112.66 C 1283.78 1166.56 1250.75 1218.32 1205.74 1251.57 C 1178.62 1271.61 1153.33 1279.15 1137.79 1312.48 C 1127.16 1335.27 1128.57 1354.63 1129.06 1379.51 C 1129.96 1426.26 1117.07 1470.45 1083.82 1504.75 C 1053.84 1535.61 1012.86 1553.32 969.851 1554 C 927.035 1554.28 883.69 1538.01 853.247 1507.55 C 824.988 1479.4 807.987 1441.9 805.441 1402.09 C 804.466 1388.76 805.23 1367.02 805.061 1353.48 C 805.928 1300.75 773.367 1278 734.31 1250.35 C 663.497 1200.22 622.883 1123.34 622.893 1036.35 z" fill="rgb(34,211,238)" transform="translate(0,0)"></path>
<path d="M 1273.31 658.116 C 1303.68 655.962 1319.34 679.084 1338.74 698.76 C 1390.12 750.875 1427.9 812.818 1449.92 882.673 C 1486.57 996.561 1476.24 1120.37 1421.22 1226.61 C 1394.81 1276.67 1360.29 1318.68 1319.37 1357.48 C 1308.65 1367.65 1301.61 1373.85 1287.32 1378.29 C 1276.8 1379.68 1268.03 1378.21 1258.67 1372.98 C 1248.48 1367.37 1241.01 1357.85 1237.98 1346.62 C 1229.08 1313.33 1264.52 1290.33 1284.62 1268.41 C 1304.27 1247.38 1321.51 1224.21 1336 1199.34 C 1348.11 1178.97 1359.19 1156.93 1366.82 1134.48 C 1405.78 1019.81 1379.74 886.791 1305.18 792.159 C 1295.43 779.178 1284.68 767.537 1273.71 755.665 C 1261.21 742.145 1241.77 729.171 1237.47 710.812 C 1234.92 699.406 1237 687.451 1243.26 677.581 C 1250.72 665.762 1260.41 661.176 1273.31 658.116 z" fill="rgb(34,211,238)" transform="translate(0,0)"></path>
<metadata><recraft-signature>{"signed_by": "recraft", "signature_b64": "6gmedZM+AFemnzeTf2xpK8OghzK0XGoya0X5YCUD7qKU1uo1qiMoJ6MjM5moMIO3uUuYCsNswQj12QbppsK+AQ==", "signing_algo": "Ed25519", "generation_timestamp": 1783907147, "identifier": "be368554-a84e-47f1-915e-3fece5e4dd33"}</recraft-signature></metadata></svg>