<svg xmlns="http://www.w3.org/2000/svg" height="1024" preserveAspectRatio="none" style="display: block;" version="1.1" viewBox="0 0 2048 2048" width="1024">
<path d="M 0 0 L 2048 0 L 2048 2048 L 0 2048 L 0 0 z" fill="rgb(13,14,16)" transform="translate(0,0)"></path>
<path d="M 1349.45 624.812 C 1352.44 625.003 1357.09 623.918 1357.97 626.785 C 1291.12 633.198 1235.45 675.954 1193.63 726.447 C 1107.23 830.896 1071.34 967.035 1061.17 1099.9 C 1056.9 1155.74 1055.58 1217.17 1078.49 1269.44 C 1086.48 1287.69 1093.91 1306.11 1095.32 1326.31 C 1098.22 1367.47 1073.1 1422.15 1027.04 1425.86 C 1002.76 1427.63 972.423 1408.74 960.324 1387.82 C 952.402 1374.51 948.29 1359.41 947.743 1343.89 C 943.833 1295.72 975.381 1259.8 983.19 1214 C 989.932 1174.45 988.572 1133.77 993.663 1093.96 C 1006.45 963.094 1050.57 838.348 1139.55 739.555 C 1193.09 680.112 1266.8 628.845 1349.45 624.812 z" fill="rgb(217,119,6)" transform="translate(0,0)"></path>
<path d="M 591.638 708.773 C 660.195 711.391 728.149 759.336 773.534 808.794 C 849.021 891.055 894.992 1001.94 909.736 1111.96 C 914.531 1145.28 913.485 1178.26 917.874 1211.68 C 922.247 1244.97 943.647 1271.97 942.333 1305.53 C 940.985 1339.93 918.299 1375.52 879.988 1373.11 C 864.765 1372.06 850.616 1364.89 840.765 1353.24 C 810.443 1318.07 827.143 1270.88 844.44 1235.4 C 849.506 1225 851.264 1207.45 853.725 1196.19 C 870.194 1064.61 821.705 910.414 737.35 808.901 C 700.776 764.889 648.869 722.927 592.966 712.251 L 591.638 708.773 z" fill="rgb(217,119,6)" transform="translate(0,0)"></path>
<path d="M 1463.08 710.67 C 1402.62 719.607 1347.05 765.594 1308.32 812.395 C 1222.91 917.926 1179.87 1064.04 1193.92 1199.07 C 1197.85 1236.83 1217.86 1261.3 1222.12 1296.41 C 1226.07 1329.03 1203.91 1373.27 1166.48 1373.24 C 1130.46 1373.24 1107.31 1343.85 1106.96 1309.34 C 1106.49 1264.16 1134.6 1233.74 1134.64 1186.48 C 1134.74 1049.94 1180.6 911.26 1273.87 809.924 C 1316.02 764.128 1387.95 711.427 1451.87 708.955 C 1456.4 709.353 1459.27 708.462 1463.08 710.67 z" fill="rgb(217,119,6)" transform="translate(0,0)"></path>
<path d="M 502.309 784.764 C 510.797 785.672 529.44 787.382 536.997 789.904 C 607.822 805.112 675.05 869.844 713.537 929.658 C 751.666 988.404 776.624 1054.71 786.695 1124.02 C 790.06 1147.76 789.804 1173.97 794.591 1196.87 C 801.951 1228.46 824.121 1253.67 815.628 1287.95 C 809.675 1311.98 786.153 1332.25 760.814 1325.7 C 726.416 1316.8 715.895 1278.81 726.3 1248.27 C 732.633 1229.68 741.673 1213.95 744.248 1194.29 C 755.56 1118.49 729.48 1023.52 694.417 956.621 C 657.079 885.386 600.49 816.191 522.158 791.1 C 515.782 789.502 510.487 788.387 504.018 787.199 L 502.309 784.764 z" fill="rgb(217,119,6)" transform="translate(0,0)"></path>
<path d="M 1529.13 786.259 C 1531.85 786.652 1532.2 787.118 1534.54 788.772 C 1454.72 812.899 1398.35 878.238 1358.95 949.473 C 1322.43 1015.5 1293.02 1113.24 1303.43 1189.56 C 1305.65 1210.74 1315.68 1230.35 1322.16 1250.29 C 1344.31 1318.53 1255.78 1364.62 1232.8 1285.33 C 1224.36 1256.2 1247.89 1224.46 1253.45 1197.4 C 1258.19 1174.27 1257.82 1149.03 1261.53 1125.58 C 1280.14 987.29 1380.46 815.509 1529.13 786.259 z" fill="rgb(217,119,6)" transform="translate(0,0)"></path>
<path d="M 687.236 623.918 C 703.062 624.555 719.246 625.298 734.69 629.023 C 801.538 645.146 857.632 684.885 903.236 734.95 C 955.759 792.611 984.045 850.969 1014.84 920.809 C 999.868 959.296 985.81 1015.47 983.232 1056.7 C 963.01 915.431 916.808 765.281 798.537 673.568 C 767.84 649.764 723.219 626.885 683.608 626.918 C 684.905 625.776 685.829 624.945 687.236 623.918 z" fill="rgb(217,119,6)" transform="translate(0,0)"></path>
<path d="M 1529.13 786.259 C 1533.97 785.111 1562.24 782.957 1564.5 784.601 L 1564.66 785.182 C 1566.14 784.021 1536.34 788.52 1534.54 788.772 C 1532.2 787.118 1531.85 786.652 1529.13 786.259 z" fill="rgb(140,85,24)" transform="translate(0,0)"></path>
<path d="M 569.515 708.731 C 573.656 708.155 588.032 707.283 591.638 708.773 L 592.966 712.251 C 584.548 711.166 578.006 709.815 569.181 709.926 L 569.515 708.731 z" fill="rgb(140,85,24)" transform="translate(0,0)"></path>
<path d="M 1349.45 624.812 C 1360.98 622.542 1371.51 624.716 1383 626.051 C 1381.06 626.635 1360.58 627.064 1357.97 626.785 C 1357.09 623.918 1352.44 625.003 1349.45 624.812 z" fill="rgb(97,66,35)" transform="translate(0,0)"></path>
<path d="M 1451.87 708.955 C 1460.23 707.222 1474.2 707.634 1482.64 709.128 L 1482.78 709.987 C 1475.63 709.431 1468.74 711.135 1463.08 710.67 C 1459.27 708.462 1456.4 709.353 1451.87 708.955 z" fill="rgb(140,85,24)" transform="translate(0,0)"></path>
<path d="M 683.608 626.918 C 682.039 627.142 670.841 627.569 668.328 627.625 L 667.688 626.981 L 667.058 627.408 C 666.963 627.327 666.868 627.246 666.773 627.165 C 666.741 626.819 666.701 626.978 666.89 626.687 C 670.455 625.056 683.123 623.788 687.236 623.918 C 685.829 624.945 684.905 625.776 683.608 626.918 z" fill="rgb(97,66,35)" transform="translate(0,0)"></path>
<path d="M 504.018 787.199 C 500.467 787.163 487.073 787.173 484.702 786.15 C 484.744 786.012 484.786 785.874 484.828 785.736 C 487.876 784.741 498.836 784.585 502.309 784.764 L 504.018 787.199 z" fill="rgb(97,66,35)" transform="translate(0,0)"></path>
<path d="M 569.181 709.926 C 566.696 710.463 559.16 711.831 556.813 710.558 C 556.834 710.468 556.855 710.379 556.877 710.289 C 559.169 708.56 566.619 708.74 569.515 708.731 L 569.181 709.926 z" fill="rgb(97,66,35)" transform="translate(0,0)"></path>
<path d="M 1482.64 709.128 C 1484.76 708.997 1489.62 708.437 1491.11 710.511 C 1490.14 712.083 1484.19 710.471 1482.78 709.987 L 1482.64 709.128 z" fill="rgb(97,66,35)" transform="translate(0,0)"></path>
<metadata><recraft-signature>{"signed_by": "recraft", "signature_b64": "+BPGZ+ls37vcLLC/VIJdtIpjBZwqpfsisaEZEswCi0ZFOzu0r41CYwpen+bltd/j6ew+49nZ8oOoU1rIdSpUBQ==", "signing_algo": "Ed25519", "generation_timestamp": 1783906466, "identifier": "f6c85190-fe71-44c1-b8e8-3e0aa24a632a"}</recraft-signature></metadata></svg>