<svg xmlns="http://www.w3.org/2000/svg" height="1024" preserveAspectRatio="none" style="display: block;" version="1.1" viewBox="0 0 2048 2048" width="1024">
<path d="M 0 0 L 2048 0 L 2048 2048 L 0 2048 L 0 0 z" fill="rgb(13,14,16)" transform="translate(0,0)"></path>
<path d="M 1176.92 701.547 C 1162.15 691.562 1150.15 683.43 1139.1 668.966 C 1099.64 617.33 1107.62 550.625 1142.48 498.98 C 1169.62 459.305 1211.32 431.938 1258.52 422.819 C 1308.59 413.212 1360.41 424.054 1402.42 452.925 C 1446.5 483.108 1474.95 530.757 1484.81 582.922 C 1489.96 610.202 1488.79 642.83 1488.69 670.941 L 1488.51 767.755 L 1488.56 852.655 C 1488.67 879.267 1489.68 909.094 1485.09 935.013 C 1479.97 962.958 1468.98 989.501 1452.86 1012.89 C 1424.3 1054.25 1379.05 1085.75 1329.33 1094.67 C 1279.75 1103.39 1228.74 1092.02 1187.54 1063.09 C 1151.27 1037.43 1124.39 999.178 1116.89 954.985 C 1110.8 920.797 1118.67 885.594 1138.74 857.253 C 1158.47 829.542 1188.11 812.989 1221.44 806.691 C 1226.67 805.701 1238.44 805.885 1241.97 803.994 C 1239.89 802.114 1213.51 802.121 1209.24 802.331 C 1169.45 804.279 1134.33 823.624 1107.83 852.748 C 1091.71 870.37 1080.24 891.724 1074.44 914.886 C 1067.44 943.248 1069.54 989.124 1069.63 1019.96 L 1069.99 1139.44 L 1168.87 1139.01 C 1229.9 1138.83 1275.39 1134.09 1323.42 1181.61 C 1351.8 1209.21 1367.79 1247.12 1367.74 1286.71 C 1368.09 1372.26 1323.75 1466.85 1263.59 1527.07 C 1200.92 1590.33 1115.39 1625.65 1026.34 1625.04 C 932.711 1624.97 848.281 1592.27 782.097 1524.58 C 720.615 1462.14 681.461 1374.1 680.26 1286.18 C 679.385 1222.13 729.082 1159.95 790.482 1144 C 817.785 1136.92 855.217 1138.99 884.053 1139.02 L 980.23 1139.06 C 980.554 1096.12 980.58 1053.18 980.309 1010.24 C 980.25 982.232 978.815 950.463 981.759 923.163 C 993.337 815.772 1080.98 726.657 1187.39 710.977 C 1199.77 709.152 1211.83 708.067 1223.99 706.363 L 1232 706.077 L 1233.86 703.915 L 1225.7 703.568 C 1212.68 702.003 1190.65 701.934 1176.92 701.547 z" fill="rgb(206,102,1)" transform="translate(0,0)"></path>
<path d="M 1233.86 703.915 C 1235.99 703.927 1238.2 703.928 1240.31 704.158 L 1239.7 704.058 L 1241.34 704.486 L 1241.43 704.66 C 1240.8 706.256 1233.4 706.058 1232 706.077 L 1233.86 703.915 z" fill="rgb(102,48,5)" transform="translate(0,0)"></path>
<path d="M 817.104 825.691 C 844.578 828.091 869.172 822.65 891.002 841.092 C 915.1 861.493 930.114 890.625 932.744 922.089 C 936.181 962.913 920.078 1001.97 893.974 1032.78 C 862.024 1070.21 816.448 1093.32 767.375 1096.99 C 717.447 1100.53 668.12 1084.36 629.981 1051.94 C 589.638 1017.16 565.682 970.496 562.43 917.409 C 561.238 897.945 561.552 878.816 561.537 859.322 L 561.501 772.213 L 561.304 678.116 C 561.209 642.41 559.478 606.631 567.643 571.708 C 575.425 538.981 591.1 508.657 613.3 483.384 C 646.235 445.645 692.874 422.618 742.861 419.417 C 793.704 416.143 838.464 432.166 876.974 465.532 C 909.557 493.763 933.246 539.386 935.704 582.552 C 937.825 619.007 925.338 654.805 901.004 682.032 C 879.226 706.181 847.522 722.314 814.906 724.102 L 814.271 727.049 C 861.056 729.484 894.134 724.325 930.578 691.619 C 960.394 665.138 978.394 627.842 980.577 588.024 C 982.112 557.94 979.885 526.447 980.777 496.408 C 981.464 473.278 976.232 448.192 996.153 431.347 C 1005.17 423.723 1015.49 419.638 1027.37 420.518 C 1040.12 421.555 1051.9 427.739 1059.98 437.645 C 1074.27 454.948 1070.24 488.955 1070.46 511.195 C 1070.78 544.266 1071.4 578.09 1068.56 610.989 C 1053.11 733.336 951.181 821.114 829.525 823.154 C 823.861 824.047 821.235 822.996 817.104 825.691 z" fill="rgb(206,102,1)" transform="translate(0,0)"></path>
<path d="M 817.104 825.691 C 815.403 825.562 805.532 825.65 805.419 824.204 C 807.152 822.505 825.94 823.002 829.525 823.154 C 823.861 824.047 821.235 822.996 817.104 825.691 z" fill="rgb(102,48,5)" transform="translate(0,0)"></path>
<path d="M 814.271 727.049 C 801.716 726.603 805.482 724.222 814.906 724.102 L 814.271 727.049 z" fill="rgb(102,48,5)" transform="translate(0,0)"></path>
<metadata><recraft-signature>{"signed_by": "recraft", "signature_b64": "l9m6Twr1tj/FCKy+zZYFfPO9izqd9Dq2v+LkGr4ch5R/pch38RnDCLWK6h4c/eqYLjVQs4xVdFPUWumq3YqcCA==", "signing_algo": "Ed25519", "generation_timestamp": 1783906592, "identifier": "3a89b1e1-b90a-4eba-bfd2-5eac2ce5bc1b"}</recraft-signature></metadata></svg>